<svg width="155" height="123" viewBox="0 0 155 123" fill="none" xmlns="http://www.w3.org/2000/svg">
<path d="M2.32739 111.859H47.3575L57.0617 121.145V111.859H152.663" stroke="#221F20" stroke-width="3.04922" stroke-linecap="round" stroke-linejoin="round"/>
<path d="M38.0825 101.371V91.9549C38.0825 80.0079 41.8492 70.9969 58.6737 63.9081C68.2322 59.8609 70.4436 56.6166 70.4436 50.0388V49.8361C70.4436 44.3694 67.4059 39.9167 61.8004 39.9167C55.5469 39.9167 52.0557 44.0693 51.7803 51.2554H38.6333C39.5487 37.1834 47.641 28.1724 61.6141 28.1724C75.5873 28.1724 83.5824 37.9944 83.5824 49.3332V49.9415C83.5824 59.2607 80.1802 67.5579 65.9317 74.1438C54.6235 79.3103 52.4202 82.652 52.323 89.1324H83.8578V101.388H38.0744L38.0825 101.371Z" fill="#221F20"/>
<path d="M95.895 75.4333H110.816C111.326 83.3737 115.684 87.8427 123.404 87.8427C131.124 87.8427 135.384 83.5927 135.384 76.9987V75.7658C135.384 68.9447 130.816 64.9218 123.509 64.9218H116.3V52.5125H123.404C129.698 52.5125 134.064 49.0492 134.064 43.0067V41.7739C134.064 36.2992 130.103 32.2681 123.712 32.2681C116.405 32.2681 112.242 36.7371 111.837 44.4504H97.5232C98.1307 29.0239 109.091 19.072 123.606 19.072C138.122 19.072 148.272 27.572 148.272 40.5329V41.5387C148.272 49.3655 143.704 55.7405 137.11 58.3116C144.821 60.5502 150.816 67.2577 150.816 76.9824V78.2153C150.816 92.19 139.653 101.355 123.615 101.355C107.576 101.355 96.3081 91.4033 95.9031 75.4171L95.895 75.4333Z" fill="#221F20"/>
<path d="M12.6473 101.372V55.2298C9.52863 57.9631 5.68904 59.8935 1.29053 60.7775V49.4144C7.20381 48.0924 12.0073 44.6616 15.7659 38.8462H24.4009V101.372H12.6473Z" fill="#221F20"/>
<path d="M40.1238 102.758V92.628C40.1238 80.7214 43.6961 71.2806 61.1524 63.9242C70.9134 59.7877 72.4849 56.6408 72.4849 50.7037V50.501C72.4849 46.251 70.4112 41.2872 64.5546 41.2872C58.698 41.2872 55.5065 45.0749 55.2391 51.9447L55.2148 52.626H40.6341L40.6827 51.8717C41.6548 37.0048 50.5085 28.1235 64.3764 28.1235C79.2649 28.1235 87.0575 39.1298 87.0575 49.9981V50.6064C87.0575 62.1723 81.6545 69.6017 68.9936 75.4495C58.3335 80.3159 56.0573 83.3655 55.8224 89.0836H87.3329V102.758H40.1319H40.1238Z" fill="#77C6E7"/>
<path d="M64.3683 28.8374C77.8797 28.8374 86.3365 38.6595 86.3365 49.9982V50.6065C86.3365 59.9257 82.9344 68.223 68.6858 74.8089C57.3776 79.9754 55.1743 83.317 55.0771 89.7974H86.6119V102.053H40.8285V92.6362C40.8285 80.6891 44.5952 71.6781 61.4197 64.5894C70.9782 60.5421 73.1896 57.2978 73.1896 50.7201V50.5173C73.1896 45.0507 70.1519 40.5979 64.5465 40.5979C58.293 40.5979 54.8017 44.7506 54.5263 51.9367H41.3793C42.3028 37.8646 50.387 28.8536 64.3602 28.8536M64.3683 27.4261C50.0873 27.4261 40.9662 36.5507 39.9699 51.8393L39.8727 53.3479H55.8953L55.9438 51.9853C56.1221 47.4352 57.7502 42.0092 64.5465 42.0092C69.8765 42.0092 71.772 46.5917 71.772 50.5092V50.712C71.772 56.576 70.1276 59.358 60.8689 63.2754C43.0642 70.7778 39.4109 80.4377 39.4109 92.6281V103.464H88.0295V88.37H56.5595C56.8997 83.828 58.9167 80.827 69.2771 76.0985C82.0595 70.1939 87.7541 62.3346 87.7541 50.6065V49.9982C87.7541 43.9476 85.5103 38.3188 81.4277 34.1661C77.1507 29.8107 71.0916 27.4099 64.3602 27.4099L64.3683 27.4261Z" fill="#FEF8E4"/>
<path d="M126.352 102.759C109.244 102.759 98.3494 92.5553 97.9363 76.1312L97.9201 75.4012H114.234L114.275 76.0663C114.769 83.7471 118.876 87.8106 126.158 87.8106C133.44 87.8106 137.426 83.9256 137.426 77.6722V76.4394C137.426 70.0968 133.254 66.3091 126.255 66.3091H118.341V52.4804H126.158C132.298 52.4804 136.105 49.1144 136.105 43.6884V42.4555C136.105 37.1998 132.233 33.6635 126.458 33.6635C119.645 33.6635 115.684 37.7513 115.287 45.1807L115.255 45.8539H99.5321L99.5645 45.1158C100.172 29.7704 111.189 19.0562 126.361 19.0562C141.533 19.0562 151.731 28.1726 151.731 41.2308V42.2365C151.731 49.4307 147.891 55.7895 141.8 58.9122C149.544 61.8888 154.275 68.9208 154.275 77.6803V78.9131C154.275 93.1799 143.055 102.767 126.361 102.767L126.352 102.759Z" fill="#77C6E7"/>
<path d="M126.352 19.7695C140.358 19.7695 151.018 28.2695 151.018 41.2304V42.2361C151.018 50.0629 146.45 56.438 139.856 59.0091C147.567 61.2476 153.562 67.9552 153.562 77.6799V78.9127C153.562 92.8875 142.399 102.053 126.361 102.053C110.322 102.053 99.0542 92.1007 98.6492 76.1145H113.57C114.08 84.0549 118.438 88.5239 126.158 88.5239C133.878 88.5239 138.139 84.2739 138.139 77.6799V76.4471C138.139 69.626 133.57 65.6031 126.263 65.6031H119.054V53.1937H126.158C132.452 53.1937 136.818 49.7304 136.818 43.6879V42.4551C136.818 36.9804 132.857 32.9494 126.466 32.9494C119.159 32.9494 114.996 37.4184 114.591 45.1316H100.277C100.885 29.7051 111.845 19.7533 126.361 19.7533M126.352 18.3501C110.784 18.3501 99.4754 29.3482 98.8517 45.0911L98.795 46.5672H115.927L116 45.2209C116.259 40.2733 118.285 34.3768 126.458 34.3768C131.885 34.3768 135.393 37.5481 135.393 42.4632V43.696C135.393 48.7571 131.942 51.7824 126.15 51.7824H117.628V67.0305H126.255C132.898 67.0305 136.713 70.4695 136.713 76.4552V77.688C136.713 83.5926 132.768 87.1126 126.15 87.1126C119.532 87.1126 115.441 83.2844 114.98 76.0334L114.899 74.7033H97.1992L97.2397 76.1551C97.4503 84.3874 100.285 91.2896 105.453 96.1155C110.597 100.925 117.831 103.472 126.369 103.472C134.907 103.472 141.719 101.168 146.895 96.8049C152.193 92.344 154.987 86.1556 154.987 78.9046V77.6718C154.987 69.2691 150.54 62.1803 143.404 58.8225C148.993 55.3836 152.452 49.187 152.452 42.2361V41.2304C152.452 34.6202 149.763 28.6994 144.87 24.5548C140.156 20.5562 133.578 18.3501 126.369 18.3501H126.352Z" fill="#FEF8E4"/>
<path d="M14.6885 102.758V57.4032C11.6346 59.7634 8.11096 61.3612 4.18227 62.1479L3.33173 62.3182V49.5277L3.88255 49.406C9.69863 48.1083 14.2916 44.7505 17.9124 39.146L18.123 38.8215H27.8516V102.766H14.6804L14.6885 102.758Z" fill="#77C6E7"/>
<path d="M27.1551 39.5195V102.045H15.4014V55.9031C12.2828 58.6364 8.4432 60.5667 4.04469 61.4508V50.0877C9.95797 48.7657 14.7615 45.3348 18.5201 39.5195H27.1551ZM28.5646 38.1001H17.7424L17.3212 38.749C13.8057 44.1912 9.35854 47.4436 3.72877 48.7008L2.61902 48.9522V63.1784L4.312 62.8377C7.86807 62.124 11.1001 60.7695 13.9677 58.7986V103.464H28.5565V38.1001H28.5646Z" fill="#FEF8E4"/>
<path d="M22.0521 14.3354V11.1317C22.0521 7.8063 21.1854 5.14599 19.4519 3.16698C17.7103 1.18797 15.1992 0.190353 11.9428 0.190353C8.89707 0.174132 6.36165 1.33396 4.34465 3.65362C2.31146 5.98139 1.30701 8.90125 1.30701 12.4294V13.3216C1.30701 16.8497 2.32766 19.7371 4.36085 21.9838C6.40215 24.2305 9.13198 25.3579 12.5585 25.3579C14.543 25.3579 16.2927 25.0821 17.7994 24.5225C19.3061 23.9709 20.513 23.2815 21.4284 22.4705L19.6787 18.9017C18.7147 19.5749 17.7022 20.094 16.6572 20.4509C15.6123 20.8078 14.3567 20.9862 12.8987 20.9862C11.0599 20.9862 9.62611 20.3779 8.58926 19.1613C7.55241 17.9366 6.98538 16.3712 6.90438 14.449L6.95298 14.3354H22.0602H22.0521ZM8.62166 6.15983C9.4884 5.09733 10.5982 4.56202 11.9347 4.56202C13.5143 4.56202 14.697 5.04055 15.4827 6.01384C16.2684 6.98712 16.6572 8.23617 16.6572 9.7772V10.3287H7.05828L7.01778 10.2233C7.22839 8.57682 7.76302 7.22233 8.62166 6.15172V6.15983Z" fill="#221F20"/>
<path d="M45.867 22.1948C45.7293 21.2783 45.6645 20.3131 45.6645 19.3155V8.53634C45.6645 5.84359 44.7978 3.79158 43.0724 2.34788C41.347 0.904172 39.0708 0.19043 36.2437 0.19043C33.4167 0.19043 30.9785 0.936614 29.164 2.41276C27.3495 3.89702 26.499 5.59216 26.5962 7.50628L26.6205 7.64417H31.8614C31.8614 6.69521 32.2259 5.93281 32.955 5.33262C33.684 4.74053 34.6723 4.44044 35.9116 4.44044C37.2968 4.44044 38.366 4.79731 39.1113 5.51916C39.8565 6.2329 40.2291 7.23052 40.2291 8.49579V10.6289H36.0007C32.6472 10.6289 30.0388 11.2859 28.1838 12.5917C26.337 13.9056 25.4135 15.7305 25.4135 18.0664C25.4135 20.4023 26.0858 22.1218 27.4386 23.4195C28.7833 24.7253 30.7193 25.3742 33.2385 25.3742C34.7452 25.3742 36.106 24.9848 37.3211 24.2143C38.5361 23.4438 39.5163 22.4868 40.2696 21.3513C40.3182 21.9433 40.3992 22.5192 40.5288 23.1032C40.6585 23.6871 40.8124 24.2873 41.0068 24.8956H46.515C46.2153 24.0197 46.0047 23.1194 45.867 22.1948ZM40.2291 17.6041C39.8727 18.4801 39.1437 19.2668 38.0501 19.9562C36.9566 20.6456 35.7172 20.9863 34.3482 20.9863C33.2304 20.9863 32.3717 20.7186 31.7642 20.1752C31.1648 19.6237 30.857 18.8937 30.857 17.961C30.857 16.8985 31.3025 15.982 32.2016 15.1952C33.0927 14.4085 34.3401 14.0192 35.9197 14.0192H40.2372V17.6041H40.2291Z" fill="#221F20"/>
<path d="M68.135 13.3379C66.6607 12.1943 64.4088 11.3102 61.363 10.6776C59.3784 10.2883 58.0662 9.84217 57.41 9.34741C56.762 8.84455 56.438 8.17136 56.438 7.31974C56.438 6.46811 56.7863 5.75437 57.4748 5.15418C58.1553 4.5621 59.1597 4.27011 60.472 4.27011C61.7843 4.27011 62.8454 4.62698 63.6068 5.34884C64.3602 6.07069 64.749 6.93042 64.749 7.93615H69.9656L70.0062 7.79827C70.0791 5.64893 69.2528 3.84025 67.5112 2.38032C65.7696 0.920393 63.4205 0.19043 60.4639 0.19043C57.5073 0.19043 55.4011 0.904172 53.6839 2.33977C51.9666 3.78347 51.1079 5.51105 51.1079 7.53873C51.1079 9.5664 51.8532 11.0182 53.3274 12.1456C54.8098 13.273 57.005 14.1489 59.8969 14.7573C61.8491 15.179 63.1856 15.6657 63.8985 16.2172C64.6113 16.7687 64.9758 17.4581 64.9758 18.3016C64.9758 19.2181 64.5951 19.94 63.8337 20.4753C63.0803 21.0187 61.9868 21.2864 60.5935 21.2864C59.2002 21.2864 58.05 20.9619 57.1022 20.3212C56.1464 19.6804 55.6361 18.6585 55.5794 17.2472H50.5247L50.4761 17.3851C50.387 19.4777 51.2537 21.3269 53.0682 22.941C54.8908 24.5469 57.3776 25.3661 60.5287 25.3661C63.4691 25.3661 65.8345 24.6848 67.6327 23.3222C69.431 21.9596 70.3302 20.1914 70.3302 18.0096C70.3302 16.0306 69.593 14.4815 68.1269 13.3379H68.135Z" fill="#221F20"/>
<path d="M89.2284 0.644531L83.9227 17.5878H83.785L83.2422 15.1627L78.6331 0.644531H72.7036L81.5088 24.6035L80.6096 26.8015C80.237 27.6775 79.7591 28.4561 79.1678 29.1293C78.6412 29.7376 77.9446 30.0702 77.0941 30.1269C78.7627 31.1002 80.2856 32.26 81.6303 33.5821C81.93 33.3874 82.1973 33.1522 82.4484 32.9008C83.6068 31.7004 84.514 30.2648 85.1539 28.5778L95.1822 0.644531H89.2284Z" fill="#221F20"/>
<path d="M126.498 2.33977C124.765 0.904172 122.489 0.19043 119.67 0.19043C116.851 0.19043 114.396 0.936614 112.582 2.41276C110.767 3.89702 109.917 5.59216 110.014 7.50628L110.038 7.64417H115.271C115.271 6.69521 115.636 5.93281 116.365 5.33262C117.102 4.74053 118.082 4.44044 119.321 4.44044C120.707 4.44044 121.776 4.79731 122.521 5.51916C123.266 6.2329 123.639 7.23052 123.639 8.49579V10.6289H119.41C116.057 10.6289 113.449 11.2859 111.602 12.5917C109.755 13.9056 108.823 15.7305 108.823 18.0664C108.823 19.8427 109.285 21.3918 110.127 22.576C111.626 21.5621 113.457 21.0268 115.174 20.3131C114.477 19.502 114.259 18.7558 114.259 17.9772C114.259 16.9147 114.704 15.9982 115.603 15.2115C116.494 14.4247 117.742 14.0354 119.321 14.0354H123.639V17.6203C123.606 17.7095 123.566 17.7907 123.525 17.8718C124.449 17.7907 125.389 17.7501 126.344 17.7501C127.3 17.7501 128.191 17.7825 129.09 17.8555V8.54445C129.09 5.8517 128.216 3.79969 126.49 2.35599L126.498 2.33977Z" fill="#221F20"/>
<path d="M151.553 13.3379C150.079 12.1943 147.827 11.3102 144.781 10.6776C142.804 10.2883 141.484 9.84217 140.836 9.34741C140.188 8.84455 139.856 8.17136 139.856 7.31974C139.856 6.46811 140.204 5.75437 140.893 5.15418C141.581 4.5621 142.578 4.27011 143.89 4.27011C145.202 4.27011 146.263 4.62698 147.025 5.34884C147.778 6.07069 148.167 6.93042 148.167 7.93615H153.383L153.432 7.79827C153.505 5.64893 152.671 3.84025 150.929 2.38032C149.187 0.920393 146.838 0.19043 143.89 0.19043C140.941 0.19043 138.827 0.904172 137.11 2.33977C135.393 3.78347 134.534 5.51105 134.534 7.53873C134.534 9.5664 135.279 11.0182 136.753 12.1456C138.236 13.273 140.431 14.1489 143.323 14.7573C145.275 15.179 146.612 15.6657 147.324 16.2172C148.037 16.7687 148.402 17.4581 148.402 18.3016C148.402 19.2181 148.021 19.94 147.26 20.4753C146.506 21.0187 145.413 21.2864 144.019 21.2864C142.626 21.2864 141.476 20.9619 140.528 20.3212C139.58 19.6804 139.062 18.6585 139.005 17.2472H133.943L133.894 17.3851C133.87 17.7988 133.894 18.2043 133.951 18.5936C138.892 19.7534 143.136 22.0407 146.352 25.1876C148.199 24.9119 149.771 24.2873 151.051 23.3222C152.849 21.9596 153.748 20.1914 153.748 18.0096C153.748 16.0306 153.011 14.4815 151.545 13.3379H151.553Z" fill="#221F20"/>
</svg>
