<svg width="334" height="335" viewBox="0 0 334 335" fill="none" xmlns="http://www.w3.org/2000/svg">
<g clip-path="url(#clip0_4323_12)">
<path d="M302.61 141.293L300.28 140.528C296.706 139.356 293.053 138.467 289.344 137.859L286.086 137.33C285.148 137.172 284.311 137.96 284.424 138.906C284.876 142.949 285.996 152.227 287.116 154.018C288.303 155.921 301.174 158.77 305.505 159.682C306.206 159.828 306.84 159.254 306.749 158.545C306.331 155.11 305.2 146.394 304.024 142.712C303.809 142.036 303.288 141.507 302.621 141.293H302.61Z" stroke="#938E83" stroke-width="0.73" stroke-miterlimit="10"/>
<path d="M305.878 159.896L315.684 163.691C315.684 163.691 321.689 164.963 321.78 163.105C318.964 161.472 306.783 157.531 306.783 157.531" stroke="#938E83" stroke-width="0.73" stroke-miterlimit="10"/>
<path d="M293.303 149.056C292.919 148.044 293.158 147.017 293.835 146.762C294.513 146.507 295.374 147.122 295.758 148.134C296.141 149.147 295.903 150.174 295.225 150.429C294.547 150.683 293.686 150.069 293.303 149.056Z" stroke="#938E83" stroke-width="0.73" stroke-miterlimit="10"/>
<path d="M321.407 163.398C321.407 163.398 323.182 164.445 325.455 165.965C325.998 166.326 326.541 166.697 327.05 167.114C329.097 168.792 331.348 167.79 331.348 167.79C335.295 166.067 332.818 160.11 332.818 160.11C329.369 146.304 321.723 142.904 321.723 142.904C321.723 142.904 319.122 147.408 316.498 147.757C316.464 147.836 315.582 147.543 314.236 144.244" stroke="#938E83" stroke-width="0.73" stroke-miterlimit="10"/>
<path d="M326.948 147.25C326.948 147.25 321.067 147.307 323.849 155.561" stroke="#938E83" stroke-width="0.73" stroke-miterlimit="10"/>
<path d="M327.932 160.155L321.226 156.653" stroke="#938E83" stroke-width="0.73" stroke-miterlimit="10"/>
<path d="M319.597 162.069C319.597 162.069 322.402 160.459 321.712 157.013" stroke="#938E83" stroke-width="0.73" stroke-miterlimit="10"/>
<path d="M321.271 156.068C321.271 156.068 321.361 153.376 320.694 153.264C320.027 153.151 318.308 154.345 317.663 156.698C317.018 159.052 317.358 160.155 317.753 160.403C318.149 160.651 320.513 158.759 320.309 155.73" stroke="#938E83" stroke-width="0.73" stroke-miterlimit="10"/>
<path d="M318.014 153.849C318.014 153.849 317.708 153.286 317.143 153.196C316.577 153.106 314.067 158.139 314.429 158.905C314.79 159.671 315.876 159.063 315.876 159.063" stroke="#938E83" stroke-width="0.73" stroke-miterlimit="10"/>
<path d="M315.921 153.117C315.921 153.117 314.745 150.73 314.033 150.617C313.32 150.505 311.047 152.138 311.126 153.815C311.205 155.493 311.058 155.471 311.522 155.651C311.986 155.831 313.637 154.176 313.965 152.971" stroke="#938E83" stroke-width="0.73" stroke-miterlimit="10"/>
<path d="M306.093 153.286C306.093 153.286 308.672 151.473 307.688 149.536C307.088 148.365 305.494 150.482 305.494 150.482" stroke="#938E83" stroke-width="0.73" stroke-miterlimit="10"/>
<path d="M311.669 143.703C311.669 143.703 307.959 142.78 305.754 145.55" stroke="#938E83" stroke-width="0.73" stroke-miterlimit="10"/>
<path d="M322.289 139.998C322.639 139.402 322.922 138.748 323.103 138.062C323.431 138.163 323.793 138.208 324.155 138.174C325.648 138.039 326.733 136.733 326.598 135.246C326.462 133.76 325.15 132.668 323.657 132.803C323.046 132.859 322.515 133.107 322.096 133.49C321.859 132.375 321.655 131.069 321.531 129.515C321.531 129.515 316.905 133.039 311.431 132.105C310.764 131.992 310.176 131.834 309.656 131.632L310.312 138.681C310.595 141.755 313.32 144.007 316.396 143.726C318.172 143.568 319.755 142.802 320.965 141.665" stroke="#938E83" stroke-width="0.73" stroke-miterlimit="10"/>
<path d="M309.644 131.632C309.905 131.733 310.199 131.823 310.481 131.902C310.775 131.981 311.081 132.06 311.42 132.105C316.905 133.05 321.52 129.515 321.52 129.515C321.576 130.213 321.655 130.866 321.734 131.463C321.78 131.744 321.814 132.014 321.859 132.273C321.927 132.701 322.017 133.107 322.085 133.49C322.504 133.107 323.035 132.859 323.646 132.803C325.139 132.668 326.451 133.76 326.586 135.246C326.722 136.733 323.906 138.264 323.94 138.298L323.951 138.32C323.951 138.32 327.559 138.636 328.452 133.039C329.38 127.206 325.286 127.578 325.286 127.578C324.37 121.531 317.256 122.792 314.202 124.29C311.149 125.776 309.305 123.141 309.305 123.141C305.878 126.587 305.878 130.19 309.656 131.632H309.644Z" stroke="#938E83" stroke-width="0.73" stroke-miterlimit="10"/>
<path d="M321.916 126.249C321.916 126.249 317.584 129.402 314.259 129.278C310.934 129.154 308.864 127.443 308.502 126.868" stroke="#938E83" stroke-width="0.73" stroke-miterlimit="10"/>
<path d="M323.917 129.053C323.917 129.053 325.704 129.548 326.077 131.609" stroke="#938E83" stroke-width="0.73" stroke-miterlimit="10"/>
<path d="M318.851 139.604C318.851 139.604 316.837 142.014 314.01 140.584" stroke="#938E83" stroke-width="0.73" stroke-miterlimit="10"/>
<path d="M317.492 135.847C317.44 135.278 317.75 134.783 318.185 134.743C318.621 134.703 319.016 135.133 319.069 135.703C319.122 136.273 318.812 136.767 318.376 136.807C317.941 136.847 317.545 136.417 317.492 135.847Z" stroke="#938E83" stroke-width="0.73" stroke-miterlimit="10"/>
<path d="M311.716 135.922C311.664 135.353 311.974 134.858 312.409 134.819C312.845 134.779 313.24 135.208 313.293 135.778C313.346 136.348 313.035 136.842 312.6 136.882C312.165 136.922 311.769 136.492 311.716 135.922Z" stroke="#938E83" stroke-width="0.73" stroke-miterlimit="10"/>
<path d="M316.136 136.553L314.349 137.859C314.349 137.859 314.847 138.433 316.091 138.535" stroke="#938E83" stroke-width="0.73" stroke-miterlimit="10"/>
</g>
<path d="M189.325 334.289C240.66 334.289 282.275 333.291 282.275 332.059C282.275 330.828 240.66 329.829 189.325 329.829C137.99 329.829 96.3746 330.828 96.3746 332.059C96.3746 333.291 137.99 334.289 189.325 334.289Z" fill="#231F20"/>
<path d="M236.654 323.869C236.564 323.749 236.464 323.689 236.354 323.639C236.714 321.979 235.974 320.209 234.834 318.989C233.184 317.209 230.804 316.079 228.754 314.829C226.364 313.379 223.984 311.919 221.594 310.469C219.514 309.199 217.464 307.929 215.464 306.539C213.604 305.249 211.694 303.939 209.554 303.159C208.524 302.779 207.484 302.599 206.434 302.559C206.524 302.349 206.524 302.099 206.394 301.829C200.294 289.639 194.224 277.499 189.194 264.809C184.204 252.239 179.944 239.389 176.534 226.299C175.284 221.489 174.224 216.649 172.824 211.879C172.664 211.349 172.294 211.029 171.714 211.089C167.064 211.519 163.404 211.599 158.754 212.039C158.284 212.089 157.814 212.419 157.844 212.949C158.404 225.649 159.374 238.559 161.514 251.089C163.604 263.279 166.524 275.269 169.894 287.169C171.564 293.049 172.754 298.769 174.674 304.569C176.404 309.839 180.394 316.529 181.834 322.029C182.094 323.029 181.124 322.389 180.914 323.399C180.754 324.149 180.354 324.849 180.294 325.609C180.184 326.959 181.174 328.209 182.384 328.829C183.594 329.449 184.994 329.549 186.344 329.649C193.654 330.179 200.964 330.709 208.284 331.049C215.544 331.379 223.034 330.449 230.314 330.069C233.744 329.889 240.264 328.599 236.644 323.869H236.654Z" fill="#FEF9E6"/>
<path d="M158.594 324.189C158.064 320.269 156.714 315.669 155.864 311.839C155.554 310.459 155.324 309.089 154.504 307.909C153.704 306.769 152.584 305.999 151.314 305.539C151.084 305.459 150.894 305.539 150.764 305.669C148.284 297.459 145.734 289.289 143.454 281.009C141.124 272.549 139.034 264.019 137.184 255.429C135.334 246.839 133.724 238.189 132.364 229.509C131.684 225.199 131.084 220.879 130.514 216.549C130.224 214.329 129.954 212.109 129.694 209.889C129.544 208.619 129.294 207.299 129.294 206.019C129.304 202.319 129.534 198.619 129.644 194.919C129.664 194.309 129.214 193.909 128.644 193.969C123.834 194.469 119.834 194.549 115.034 195.049C114.684 195.089 114.344 195.329 114.284 195.709C111.774 210.179 109.804 225.329 109.854 240.029C109.904 254.649 111.024 269.239 113.014 283.709C114.124 291.759 116.024 300.509 117.524 308.489C115.894 309.429 114.124 311.099 112.594 312.149C108.584 314.889 102.354 317.949 99.0643 321.539C95.4943 325.439 98.5343 328.079 103.044 328.859C107.094 329.559 112.274 329.319 116.364 329.649C129.574 330.709 142.814 331.069 156.064 331.559C157.144 331.599 158.274 331.629 159.264 331.189C161.454 330.209 161.614 324.009 158.584 324.169L158.594 324.189Z" fill="#FEF9E6"/>
<path d="M274.144 161.169C272.284 158.359 269.504 156.109 266.784 154.169C263.934 152.139 260.884 150.399 257.764 148.839C250.724 145.309 243.294 142.629 235.864 140.029C235.514 139.909 235.164 140.199 235.064 140.509C234.084 143.749 233.764 146.019 232.784 149.259C232.674 149.619 232.974 149.959 233.294 150.059C239.504 151.879 245.804 155.559 251.654 158.299C253.824 159.319 256.054 160.269 258.104 161.519C259.864 162.599 261.704 163.979 262.534 165.929C264.904 171.519 257.434 175.969 254.414 179.229C252.294 181.519 250.004 182.479 247.184 183.849C245.124 184.849 243.194 186.089 241.264 187.329C236.024 190.689 231.074 194.409 225.944 197.899C221.454 200.949 221.264 206.859 223.784 211.369C225.974 215.289 229.564 218.449 233.324 220.829C235.964 222.489 239.224 224.139 242.404 224.139C242.414 224.139 242.424 224.149 242.444 224.159C245.544 224.809 258.904 227.289 260.024 222.579C260.284 221.489 259.244 220.509 258.204 220.099C257.164 219.689 255.974 219.569 255.094 218.869C256.794 218.019 258.484 217.079 259.784 215.689C261.084 214.309 261.964 212.419 261.734 210.529C261.144 205.569 252.264 212.289 252.534 212.829C251.814 211.399 253.204 209.519 252.854 207.909C252.564 206.609 251.424 205.389 250.094 205.489C248.814 205.589 247.934 206.769 247.234 207.849C246.434 209.079 245.624 210.309 244.824 211.539C244.664 211.779 244.464 212.049 244.174 212.079C243.904 212.109 243.664 211.919 243.464 211.749C240.834 209.439 238.594 206.679 236.874 203.629C238.204 201.999 241.314 201.079 243.124 200.069C247.034 197.899 250.844 195.569 254.704 193.319C258.134 191.319 261.764 189.609 265.064 187.399C267.954 185.469 270.684 183.189 272.884 180.469C277.264 175.049 278.054 167.069 274.154 161.159L274.144 161.169Z" fill="#FEF9E6"/>
<path d="M100.934 116.109C89.6543 97.379 77.6243 79.239 66.3343 60.519C60.7243 51.209 55.4043 41.809 49.7843 32.509C48.4043 30.229 46.9943 28.269 45.5443 26.039C43.5643 22.989 41.3443 20.019 39.3943 17.039C37.3843 13.959 36.0343 10.459 35.4743 6.81899C35.2043 5.02899 35.2743 2.02899 33.3343 1.25899C32.0943 0.768986 30.7543 1.34899 29.8143 2.19899C28.6743 3.22899 28.6443 4.52899 28.5443 5.99899C28.3243 9.43899 29.1543 12.859 29.9543 16.179C29.4943 15.729 29.1443 15.089 28.5843 14.799C27.9143 14.459 26.7943 14.419 26.0543 14.289C24.2243 13.979 22.3743 13.789 20.5143 13.699C16.8743 13.519 13.2343 13.699 9.59431 13.939C7.04431 14.119 3.55431 14.499 2.68431 17.429C2.38431 18.449 2.58431 19.619 3.26431 20.449C3.76431 21.049 4.47431 21.369 5.24431 21.539C4.95431 21.639 4.66431 21.749 4.38431 21.869C3.32431 22.299 2.10431 22.919 1.81431 24.139C1.52431 25.339 2.35431 26.269 3.35431 26.799C4.10431 27.199 4.93431 27.459 5.78431 27.649C4.61431 28.099 3.58431 28.869 3.46431 30.149C3.27431 32.159 5.84431 33.249 7.45431 33.459C9.75431 33.759 12.1343 33.199 14.4343 33.169C16.9343 33.139 19.4443 33.329 21.9043 33.799C26.8243 34.739 31.5043 36.749 35.4643 39.839C43.8043 46.329 48.8343 56.159 53.8643 65.209C59.6543 75.599 65.4543 85.979 71.2443 96.369C74.5343 102.269 77.8243 108.159 81.1243 114.059C82.7743 117.009 84.4243 119.959 86.0643 122.909C86.8843 124.379 87.7143 125.859 88.5343 127.329C89.2843 128.679 89.9443 130.369 91.0243 131.479C91.3143 131.769 91.9843 131.699 92.1943 131.349C95.0943 126.569 97.9943 121.789 100.884 117.009C101.034 116.759 101.084 116.409 100.924 116.139L100.934 116.109Z" fill="#FEF9E6"/>
<path d="M24.7044 27.479C18.9144 26.799 12.9944 26.519 7.18436 27.019C5.42436 27.169 3.26436 27.549 2.31436 29.249C1.31436 31.029 3.11436 32.589 4.68436 33.129C6.88436 33.879 9.22436 33.339 11.4644 33.219C14.1744 33.069 16.8944 33.169 19.5744 33.559C24.8544 34.329 29.9744 36.259 34.3144 39.389C43.2144 45.789 48.5944 55.929 53.8144 65.289C59.9744 76.339 66.1444 87.3891 72.3044 98.4291C79.2244 110.829 85.9544 123.389 93.2944 135.549C93.6444 136.129 94.4344 135.549 94.1444 134.979C91.4044 129.519 88.3244 124.229 85.3344 118.909C82.3444 113.589 79.5144 108.539 76.6044 103.359C70.8244 93.099 65.0444 82.849 59.2644 72.589C54.0844 63.399 49.3044 53.599 42.3944 45.549C39.2744 41.909 35.6644 38.659 31.4044 36.399C27.1444 34.139 22.1444 32.759 17.1944 32.389C14.4244 32.179 11.6844 32.309 8.92436 32.589C7.62436 32.729 6.25436 32.789 4.99436 32.379C4.40436 32.189 3.82436 31.879 3.37436 31.429C2.32436 30.379 3.18436 29.039 4.23436 28.479C5.72436 27.689 7.65436 27.709 9.27436 27.619C10.8944 27.529 12.4944 27.469 14.1044 27.449C17.6144 27.399 21.1044 27.579 24.5944 27.939C24.8944 27.969 24.9844 27.509 24.6844 27.469L24.7044 27.479Z" fill="#231F20"/>
<path d="M23.6244 21.069C16.7744 20.089 9.61436 19.819 2.90436 21.759C0.804361 22.369 -0.43564 24.519 1.25436 26.359C2.39436 27.599 5.33436 28.549 6.94436 27.759C7.28436 27.599 7.32436 27.059 6.88436 26.979C5.15436 26.679 2.60436 27.079 1.63436 25.149C0.58436 23.059 3.69436 22.499 4.93436 22.209C6.17436 21.919 7.37436 21.699 8.60436 21.529C13.6344 20.849 18.5644 21.219 23.5844 21.709C23.9944 21.749 24.0344 21.129 23.6244 21.069Z" fill="#231F20"/>
<path d="M5.18436 21.029C3.64436 20.439 2.23436 18.959 2.34436 17.219C2.42436 15.859 3.47436 15.159 4.68436 14.779C6.86436 14.099 9.34436 14.159 11.6044 14.069C17.3944 13.859 23.3444 14.019 28.9644 15.559C29.5744 15.729 29.8644 14.779 29.2444 14.619C22.4144 12.909 15.1344 12.939 8.16436 13.459C6.13436 13.609 3.34436 13.749 2.05436 15.589C0.434359 17.899 2.57436 20.889 4.82436 21.719C5.29436 21.889 5.66436 21.199 5.19436 21.019L5.18436 21.029Z" fill="#231F20"/>
<path d="M31.2543 18.5791C30.2443 16.2291 29.5243 13.7591 29.1743 11.2291C28.8343 8.82909 28.4843 5.88909 29.3243 3.55909C29.7743 2.31909 30.8143 1.22909 32.2343 1.31909C33.5743 1.40909 33.9643 2.80909 34.3043 3.87909C34.9443 5.89909 35.3343 7.98909 35.8343 10.0491C36.3043 11.9891 36.8643 13.9291 37.8343 15.6891C38.9243 17.6691 40.4443 19.4491 41.8243 21.2291C44.9243 25.2191 47.4643 29.5391 50.0943 33.8391C61.3443 52.2691 72.3743 70.8291 83.5243 89.3291C89.7843 99.7191 95.9943 110.149 102.394 120.449C102.684 120.909 103.444 120.559 103.164 120.079C91.4143 100.119 79.1543 80.4691 67.1343 60.6691C61.2543 50.9791 55.3543 41.2891 49.5443 31.5591C48.0943 29.1191 46.7143 26.6091 45.1043 24.2691C43.6943 22.2191 42.1043 20.3091 40.6143 18.3291C39.1243 16.3491 37.9443 14.4191 37.2143 12.0691C36.5243 9.83909 36.1243 7.53909 35.5443 5.27909C35.1143 3.59909 34.6543 0.959087 32.6143 0.569087C30.9043 0.239087 29.3743 1.44909 28.7343 2.94909C27.7343 5.29909 28.0743 8.36909 28.3943 10.8191C28.7643 13.6091 29.5443 16.2991 30.6643 18.8691C30.8343 19.2491 31.3943 18.9491 31.2343 18.5691L31.2543 18.5791Z" fill="#231F20"/>
<path d="M152.264 306.379C153.534 306.849 154.644 307.639 155.334 308.819C156.094 310.129 156.204 311.729 156.534 313.189C157.334 316.709 158.304 320.179 159.104 323.699C159.194 324.099 159.794 323.979 159.724 323.569C159.144 319.669 158.034 315.879 157.154 312.029C156.834 310.619 156.614 309.209 155.744 308.009C154.944 306.899 153.814 306.149 152.534 305.699C152.094 305.549 151.824 306.209 152.264 306.369V306.379Z" fill="#231F20"/>
<path d="M100.674 320.479C104.044 317.699 107.584 315.129 111.224 312.719C114.864 310.309 118.794 307.949 122.944 306.369C124.684 305.709 126.904 305.019 128.674 305.959C130.244 306.789 130.754 308.689 131.614 310.119C133.454 313.149 136.914 312.659 139.984 312.289C144.174 311.789 148.504 310.769 152.194 308.659C152.814 308.309 152.264 307.349 151.654 307.699C148.274 309.629 144.364 310.589 140.544 311.129C138.704 311.389 136.384 311.849 134.574 311.319C132.624 310.739 132.084 308.529 131.114 306.979C129.174 303.869 125.694 304.239 122.654 305.399C118.824 306.869 115.234 308.969 111.824 311.219C107.784 313.889 104.024 316.949 100.334 320.069C100.074 320.289 100.414 320.679 100.674 320.469V320.479Z" fill="#231F20"/>
<path d="M100.004 320.459C99.0944 321.069 99.0244 322.259 99.5744 323.149C100.394 324.489 102.274 324.549 103.654 324.699C108.064 325.159 112.484 325.439 116.904 325.659C125.974 326.109 135.064 326.199 144.154 326.079C149.194 326.019 154.254 325.969 159.294 325.669C159.904 325.629 159.774 324.739 159.194 324.739C151.404 324.739 143.624 325.119 135.834 325.099C128.044 325.079 119.954 324.879 112.024 324.399C109.874 324.269 107.734 324.099 105.584 323.949C104.544 323.869 103.504 323.829 102.474 323.709C101.794 323.629 100.964 323.499 100.444 323.009C99.8744 322.479 99.6944 321.449 100.364 320.939C100.674 320.699 100.324 320.249 100.004 320.459Z" fill="#231F20"/>
<path d="M99.3243 321.429C97.5243 321.829 96.4843 323.769 96.9443 325.519C97.4843 327.579 99.5443 328.769 101.474 329.239C104.494 329.969 107.814 329.919 110.894 330.109C114.334 330.329 117.784 330.499 121.234 330.649C127.994 330.939 134.754 331.149 141.504 331.379C144.984 331.499 148.474 331.629 151.954 331.739C153.514 331.789 155.074 331.799 156.624 331.819C157.804 331.839 159.064 331.929 160.174 331.419C161.644 330.749 161.944 329.069 162.014 327.589C162.064 326.309 161.834 324.319 160.154 324.409C159.554 324.439 159.674 325.379 160.274 325.339C161.414 325.269 161.144 327.879 161.044 328.529C160.964 329.049 160.854 329.759 160.504 330.189C159.704 331.169 157.814 331.019 156.694 330.959C151.454 330.699 146.204 330.519 140.964 330.339C130.674 329.989 120.384 329.699 110.104 329.029C107.284 328.849 104.254 328.889 101.504 328.219C100.234 327.909 98.9543 327.299 98.1943 326.179C97.2143 324.739 97.4343 322.419 99.4043 321.919C99.7243 321.839 99.6343 321.329 99.3043 321.409L99.3243 321.429Z" fill="#231F20"/>
<path d="M113.994 196.279C111.264 210.909 109.874 225.649 109.814 240.519C109.754 255.389 110.854 269.719 112.794 284.199C113.864 292.189 115.014 300.259 116.904 308.099C117.034 308.639 117.964 308.529 117.884 307.959C116.934 300.809 115.454 293.729 114.424 286.589C113.394 279.449 112.584 272.249 111.974 265.049C110.724 250.349 110.474 235.559 111.504 220.839C112.074 212.659 112.964 204.479 114.414 196.399C114.464 196.129 114.054 195.999 114.004 196.269L113.994 196.279Z" fill="#231F20"/>
<path d="M107.844 317.329C106.174 318.689 105.494 320.089 106.724 321.329C107.664 322.279 109.164 322.319 110.494 322.299C115.304 322.219 120.004 322.669 124.754 322.659C133.424 322.639 142.094 322.619 150.764 322.589C152.154 322.589 153.864 322.369 154.354 321.079C154.644 320.329 154.384 319.489 154.124 318.739C153.554 317.079 152.984 315.419 152.414 313.759C152.274 313.339 152.104 312.889 151.734 312.649C151.204 312.309 150.514 312.529 149.934 312.749C145.404 314.499 139.414 318.669 134.694 316.799C130.914 315.299 129.244 310.819 124.684 310.739C122.534 310.699 112.054 313.909 107.844 317.339V317.329Z" fill="#77C7E7"/>
<path d="M198.324 314.469C194.714 317.519 189.714 315.939 185.244 314.409C184.744 314.239 184.224 314.059 183.694 314.129C179.774 314.689 183.994 320.059 185.674 320.879C189.304 322.659 195.804 322.059 199.814 322.369C209.774 323.159 219.764 323.639 229.754 323.799C230.024 323.799 230.304 323.799 230.534 323.679C230.884 323.489 231.024 323.049 231.064 322.649C231.304 320.139 228.814 318.319 226.624 317.069C221.234 313.969 215.234 309.139 209.214 307.509C204.054 306.109 202.084 310.309 199.194 313.609C198.914 313.929 198.624 314.209 198.324 314.469Z" fill="#77C7E7"/>
<path d="M128.604 206.339C131.334 233.129 136.544 259.579 144.144 285.419C146.344 292.899 148.774 300.309 151.424 307.639C151.614 308.159 152.364 307.779 152.194 307.269C143.634 281.789 136.724 255.869 132.394 229.329C131.144 221.659 129.994 213.969 129.104 206.249C129.064 205.909 128.554 206.019 128.594 206.349L128.604 206.339Z" fill="#231F20"/>
<path d="M116.264 316.359C116.584 313.749 117.614 311.409 118.894 309.139C119.064 308.839 118.604 308.539 118.394 308.809C116.724 310.909 115.894 313.719 115.604 316.349C115.554 316.769 116.214 316.769 116.264 316.349V316.359Z" fill="#231F20"/>
<path d="M111.744 311.819C113.034 311.839 114.294 312.099 115.574 312.229C116.854 312.359 118.214 312.359 119.544 312.599C120.694 312.809 121.854 313.049 122.974 313.379C123.504 313.539 124.024 313.739 124.504 314.019C124.944 314.279 125.264 314.719 125.734 314.899C125.944 314.979 126.144 314.739 126.094 314.539C125.874 313.699 124.654 313.169 123.904 312.889C122.744 312.449 121.484 312.209 120.264 311.979C118.824 311.719 117.424 311.649 115.974 311.589C114.524 311.529 113.174 311.299 111.774 311.309C111.454 311.309 111.424 311.799 111.744 311.809V311.819Z" fill="#231F20"/>
<path d="M111.554 310.979C109.524 311.559 107.364 311.699 105.274 311.379C104.294 311.229 103.294 310.989 102.404 310.529C101.694 310.169 100.604 309.489 101.044 308.559C101.894 306.769 104.884 307.609 106.324 307.989C108.144 308.459 110.094 309.189 111.614 310.319C111.994 310.599 112.424 309.949 112.024 309.729C110.444 308.869 108.924 308.059 107.194 307.549C105.604 307.079 103.524 306.509 101.894 307.079C100.574 307.539 99.7143 309.029 100.804 310.179C101.894 311.329 103.764 311.799 105.324 312.019C107.484 312.329 109.664 312.129 111.744 311.479C112.074 311.379 111.894 310.879 111.564 310.969L111.554 310.979Z" fill="#231F20"/>
<path d="M112.304 309.809C110.924 308.049 109.524 306.259 108.604 304.199C108.124 303.129 107.774 301.979 107.644 300.809C107.544 299.909 107.534 298.159 108.904 298.299C109.964 298.409 110.534 299.579 110.974 300.409C111.514 301.419 111.954 302.479 112.284 303.579C112.914 305.639 113.174 307.799 113.054 309.959C113.024 310.419 113.744 310.469 113.764 310.009C113.854 308.069 113.664 306.129 113.184 304.249C112.704 302.369 111.934 300.339 110.744 298.769C110.264 298.139 109.584 297.619 108.764 297.619C107.994 297.619 107.374 298.109 107.104 298.809C106.464 300.479 107.154 302.639 107.824 304.189C108.784 306.399 110.304 308.299 111.804 310.169C112.054 310.479 112.554 310.119 112.304 309.809Z" fill="#231F20"/>
<path d="M114.814 315.719C114.284 316.119 113.704 316.709 113.974 317.439C114.184 317.999 114.784 318.389 115.344 318.509C116.514 318.759 117.874 317.889 117.954 316.639C118.004 315.879 117.474 315.199 116.684 315.219C116.464 315.219 116.294 315.469 116.324 315.679C116.354 315.919 116.564 316.049 116.784 316.039C116.904 316.039 117.054 316.179 117.104 316.299C117.194 316.509 117.134 316.749 117.034 316.959C116.834 317.369 116.454 317.649 116.014 317.749C115.574 317.849 115.064 317.679 114.774 317.319C114.424 316.889 114.844 316.459 115.164 316.159C115.394 315.939 115.074 315.529 114.814 315.729V315.719Z" fill="#231F20"/>
<path d="M124.394 314.419C124.204 314.909 124.274 315.539 124.624 315.939C124.924 316.279 125.364 316.469 125.814 316.479C126.314 316.479 126.794 316.249 127.094 315.839C127.374 315.469 127.484 314.949 127.324 314.509C127.134 313.959 126.654 313.599 126.074 313.569C125.844 313.559 125.624 313.799 125.634 314.029C125.654 314.299 125.844 314.439 126.094 314.469C126.014 314.469 126.084 314.469 126.114 314.479C126.164 314.489 126.114 314.479 126.164 314.499L126.254 314.549C126.254 314.549 126.184 314.499 126.224 314.529C126.244 314.549 126.264 314.559 126.274 314.569C126.304 314.589 126.324 314.619 126.354 314.639C126.364 314.649 126.374 314.659 126.384 314.669C126.384 314.669 126.354 314.629 126.374 314.659C126.394 314.689 126.414 314.719 126.434 314.749C126.434 314.759 126.454 314.779 126.454 314.789C126.484 314.829 126.434 314.749 126.454 314.789C126.464 314.819 126.474 314.849 126.484 314.879C126.484 314.899 126.504 314.959 126.504 314.939C126.504 314.919 126.504 314.989 126.504 315.009C126.504 315.049 126.504 315.079 126.504 315.119C126.504 315.079 126.494 315.149 126.494 315.159C126.494 315.189 126.474 315.219 126.464 315.249C126.444 315.309 126.404 315.359 126.364 315.409C126.344 315.439 126.324 315.459 126.304 315.479C126.294 315.489 126.284 315.499 126.264 315.509C126.214 315.549 126.154 315.599 126.094 315.629C126.074 315.639 125.984 315.669 125.934 315.679C125.924 315.679 125.834 315.699 125.874 315.689C125.924 315.689 125.874 315.689 125.854 315.689C125.834 315.689 125.814 315.689 125.784 315.689C125.654 315.689 125.534 315.669 125.414 315.619C125.364 315.599 125.314 315.569 125.264 315.539C125.234 315.519 125.214 315.499 125.184 315.479C125.174 315.469 125.164 315.459 125.144 315.449C125.204 315.499 125.104 315.409 125.094 315.399C124.874 315.169 124.784 314.849 124.854 314.539C124.914 314.269 124.484 314.149 124.384 314.409L124.394 314.419Z" fill="#231F20"/>
<path d="M157.954 213.109C158.664 237.319 162.174 261.179 168.494 284.559C170.294 291.209 172.074 297.989 174.564 304.429C174.814 305.059 175.854 304.669 175.674 304.019C174.044 297.939 172.044 291.949 170.354 285.889C168.794 280.309 167.334 274.709 166.034 269.069C163.384 257.519 161.384 245.819 160.144 234.039C159.414 227.079 158.854 220.109 158.494 213.119C158.474 212.769 157.934 212.759 157.944 213.119L157.954 213.109Z" fill="#231F20"/>
<path d="M173.254 215.949C178.424 239.409 185.874 262.259 196.094 284.019C199.014 290.239 202.084 296.409 205.494 302.379C205.924 303.129 207.034 302.449 206.634 301.699C201.144 291.329 195.924 280.859 191.364 270.039C186.704 258.969 182.704 247.659 179.224 236.169C177.184 229.459 175.314 222.669 173.764 215.829C173.684 215.499 173.174 215.609 173.244 215.949H173.254Z" fill="#231F20"/>
<path d="M183.894 323.549C195.114 325.109 206.414 326.059 217.734 326.359C220.524 326.429 223.324 326.469 226.114 326.469C228.444 326.469 230.854 326.529 233.114 325.869C234.094 325.579 235.894 325.149 236.354 324.139C237.144 322.419 236.454 320.409 235.274 319.059C233.754 317.309 231.494 316.239 229.544 315.049C227.104 313.569 224.674 312.079 222.234 310.599C220.154 309.339 218.094 308.079 216.094 306.689C214.254 305.409 212.374 304.089 210.284 303.259C206.104 301.599 201.724 303.099 198.124 305.469C196.094 306.809 194.304 308.489 192.544 310.159C191.564 311.089 190.344 312.679 188.834 312.579C187.554 312.499 186.104 311.449 184.994 310.849C183.604 310.099 182.244 309.279 180.924 308.429C179.994 307.829 179.024 307.039 177.914 306.829C176.804 306.619 176.114 307.349 176.084 308.459C176.044 310.139 176.864 311.869 177.514 313.379C178.844 316.459 180.354 319.459 181.614 322.569C181.774 322.969 182.484 322.689 182.324 322.289C181.424 319.969 180.404 317.699 179.384 315.419C178.584 313.619 177.674 311.799 177.194 309.879C177.074 309.389 176.854 308.649 177.014 308.139C177.264 307.349 178.134 307.829 178.664 308.109C180.714 309.169 182.584 310.609 184.624 311.719C186.134 312.539 188.114 313.969 189.914 313.369C191.824 312.739 193.464 310.509 194.894 309.199C198.154 306.229 202.504 303.099 207.164 303.419C211.224 303.699 214.594 306.879 217.854 308.969C222.014 311.639 226.314 314.119 230.544 316.689C232.364 317.789 234.614 318.919 235.474 320.999C235.834 321.869 236.084 323.439 235.254 324.049C234.744 324.429 233.644 324.769 233.104 324.939C230.944 325.619 228.634 325.589 226.394 325.589C223.854 325.589 221.324 325.579 218.784 325.519C207.154 325.279 195.534 324.419 183.994 322.969C183.644 322.929 183.494 323.459 183.854 323.509L183.894 323.549Z" fill="#231F20"/>
<path d="M180.984 322.019C179.004 324.359 179.724 328.179 182.554 329.489C184.674 330.479 187.394 330.439 189.684 330.659C192.324 330.909 194.964 331.099 197.604 331.229C202.954 331.499 208.314 331.529 213.664 331.449C219.014 331.369 224.164 331.409 229.334 330.819C230.884 330.639 232.364 330.339 233.854 329.869C234.844 329.559 235.884 329.259 236.684 328.569C238.214 327.269 238.114 325.299 236.934 323.809C236.514 323.289 235.774 323.979 236.274 324.469C237.194 325.359 237.394 326.829 236.524 327.849C235.854 328.649 234.724 329.019 233.734 329.239C231.524 329.749 229.214 329.959 226.954 330.079C222.784 330.299 218.594 330.379 214.414 330.449C205.764 330.589 197.094 330.449 188.474 329.559C186.444 329.349 183.564 329.449 181.964 327.999C180.444 326.629 180.314 324.129 181.574 322.559C181.884 322.169 181.324 321.629 180.994 322.029L180.984 322.019Z" fill="#231F20"/>
<path d="M209.434 313.459C210.824 312.359 212.374 311.499 214.064 310.949C214.894 310.679 215.734 310.489 216.594 310.369C217.454 310.249 218.534 310.319 219.364 309.979C219.534 309.909 219.564 309.619 219.394 309.529C218.614 309.129 217.514 309.279 216.674 309.389C215.724 309.519 214.774 309.749 213.874 310.059C212.064 310.679 210.404 311.629 208.934 312.859C208.594 313.139 209.084 313.739 209.434 313.459Z" fill="#231F20"/>
<path d="M213.704 306.819C215.614 309.669 216.594 312.939 216.944 316.329C216.994 316.839 217.764 316.809 217.744 316.289C217.614 312.739 216.254 309.309 214.184 306.449C213.954 306.129 213.484 306.499 213.704 306.819Z" fill="#231F20"/>
<path d="M207.894 311.699C207.754 311.719 207.624 311.729 207.494 311.789C207.364 311.849 207.234 311.919 207.124 312.019C206.914 312.209 206.764 312.449 206.664 312.719C206.464 313.269 206.534 313.899 206.884 314.369C207.624 315.369 209.264 315.579 210.294 314.919C210.974 314.479 211.324 313.569 210.784 312.869C210.664 312.709 210.404 312.709 210.264 312.829C210.104 312.969 210.104 313.189 210.224 313.349C210.504 313.729 210.064 314.179 209.734 314.329C209.324 314.519 208.814 314.569 208.374 314.479C207.954 314.399 207.544 314.169 207.334 313.789C207.154 313.469 207.184 313.029 207.364 312.709C207.464 312.519 207.634 312.339 207.844 312.259C207.964 312.219 208.104 312.229 208.184 312.109C208.314 311.909 208.124 311.669 207.904 311.699H207.894Z" fill="#231F20"/>
<path d="M216.454 314.699C215.724 314.859 215.224 315.549 215.144 316.269C215.054 317.109 215.534 317.839 216.254 318.239C216.974 318.639 217.894 318.669 218.654 318.319C219.374 317.979 219.974 317.259 219.924 316.439C219.894 315.999 219.694 315.559 219.374 315.249C219.184 315.069 218.974 314.929 218.724 314.849C218.594 314.799 218.454 314.779 218.314 314.779C218.124 314.779 218.014 314.839 217.884 314.969C217.724 315.129 217.804 315.399 217.984 315.499C218.104 315.559 218.184 315.579 218.314 315.579C218.374 315.579 218.394 315.579 218.444 315.579C218.564 315.599 218.684 315.649 218.784 315.729C218.954 315.869 219.084 316.079 219.144 316.289C219.274 316.809 218.944 317.299 218.504 317.559C218.024 317.849 217.444 317.919 216.914 317.749C216.384 317.579 215.884 317.159 215.834 316.569C215.794 316.039 216.094 315.469 216.634 315.349C217.054 315.259 216.874 314.619 216.464 314.709L216.454 314.699Z" fill="#231F20"/>
<path d="M217.244 307.199C216.544 305.479 216.214 303.649 216.094 301.799C216.044 300.929 216.044 300.049 216.144 299.179C216.224 298.479 216.304 297.469 216.874 296.969C217.754 296.189 218.334 297.599 218.504 298.259C218.764 299.239 218.794 300.269 218.774 301.279C218.744 302.369 218.674 303.449 218.554 304.529C218.434 305.679 218.184 306.819 218.104 307.969C218.074 308.419 218.764 308.479 218.874 308.059C219.144 307.039 219.224 305.949 219.334 304.899C219.444 303.849 219.514 302.819 219.544 301.779C219.604 300.179 219.674 298.059 218.674 296.699C217.774 295.469 216.384 295.979 215.764 297.159C215.054 298.519 215.104 300.339 215.194 301.839C215.314 303.759 215.784 305.709 216.584 307.459C216.774 307.869 217.424 307.619 217.244 307.199Z" fill="#231F20"/>
<path d="M219.374 308.759C220.854 307.569 222.504 306.589 224.294 305.959C225.164 305.649 226.054 305.429 226.964 305.289C227.384 305.229 227.804 305.189 228.224 305.159C228.544 305.139 229.244 305.039 229.484 305.359C229.944 305.989 227.884 307.059 227.504 307.259C226.744 307.669 225.934 307.979 225.104 308.209C223.314 308.709 221.474 308.779 219.624 308.819C219.214 308.819 219.224 309.499 219.624 309.539C222.954 309.809 226.734 309.119 229.434 307.039C229.954 306.639 230.534 306.039 230.374 305.309C230.234 304.659 229.614 304.379 229.004 304.319C228.194 304.239 227.324 304.389 226.524 304.529C225.684 304.669 224.854 304.879 224.054 305.159C222.134 305.809 220.394 306.819 218.874 308.159C218.544 308.449 219.024 309.039 219.374 308.759Z" fill="#231F20"/>
<path d="M231.864 207.019C235.074 204.119 239.044 202.319 242.794 200.259C246.794 198.059 250.704 195.699 254.644 193.399C261.174 189.579 268.144 186.439 272.994 180.389C277.224 175.129 278.224 167.469 274.684 161.549C272.964 158.679 270.304 156.429 267.644 154.449C264.764 152.309 261.654 150.479 258.454 148.839C251.164 145.099 243.394 142.139 235.594 139.669C235.054 139.499 234.834 140.309 235.354 140.509C241.644 142.909 248.014 145.079 254.144 147.889C260.274 150.699 266.684 154.129 271.524 159.059C276.794 164.419 277.324 172.979 272.894 179.049C268.444 185.129 261.724 188.309 255.414 192.009C251.164 194.499 247.004 197.139 242.724 199.569C238.864 201.769 234.794 203.669 231.504 206.709C231.274 206.919 231.644 207.219 231.864 207.019Z" fill="#231F20"/>
<path d="M232.434 150.179C238.864 152.069 244.914 154.909 250.964 157.769C254.784 159.569 260.624 161.589 262.034 166.059C262.814 168.559 261.614 171.419 260.214 173.479C258.704 175.689 256.544 177.329 254.324 178.789C248.514 182.599 242.604 186.259 236.754 190.009C234.084 191.719 231.354 193.369 228.764 195.189C226.614 196.699 224.524 198.459 223.194 200.759C220.994 204.579 221.834 208.849 224.114 212.429C226.534 216.229 230.164 219.299 234.014 221.589C237.864 223.879 243.294 225.939 247.354 222.579C249.574 220.739 250.944 218.059 252.034 215.439C253.124 212.819 254.404 209.249 253.234 206.489C252.124 203.879 249.344 204.449 247.594 206.089C245.344 208.189 244.384 211.519 243.274 214.279C243.034 214.869 243.884 215.359 244.164 214.759C245.304 212.239 246.254 209.049 248.294 207.089C249.374 206.039 251.264 205.069 252.114 206.889C252.694 208.139 252.454 209.729 252.204 211.029C251.654 213.849 250.404 216.789 248.804 219.179C247.284 221.449 245.174 223.259 242.314 223.269C237.914 223.289 233.364 220.169 230.134 217.459C226.904 214.749 223.764 211.229 223.064 206.999C222.184 201.659 226.544 197.929 230.544 195.279C235.774 191.809 241.104 188.469 246.374 185.059C249.014 183.349 251.654 181.649 254.284 179.939C256.164 178.709 258.034 177.399 259.554 175.729C262.044 173.009 264.184 168.579 262.424 164.959C260.474 160.939 255.464 159.099 251.674 157.339C245.464 154.449 239.194 151.599 232.594 149.679C232.264 149.579 232.094 150.089 232.424 150.189L232.434 150.179Z" fill="#231F20"/>
<path d="M246.264 223.419C248.774 222.629 251.214 221.669 253.584 220.539C255.614 219.579 257.734 218.549 259.444 217.059C261.034 215.679 262.174 213.779 262.164 211.619C262.164 209.809 261.174 208.079 259.134 208.419C257.934 208.619 256.874 209.359 255.864 209.999C255.304 210.359 254.744 210.739 254.194 211.109C253.594 211.519 252.924 211.899 252.474 212.479C252.304 212.699 252.574 213.049 252.834 212.969C253.924 212.599 254.904 211.699 255.874 211.079C256.844 210.459 257.944 209.579 259.134 209.319C261.114 208.889 261.584 210.999 261.294 212.489C261.084 213.599 260.424 214.649 259.684 215.479C257.974 217.429 255.374 218.639 253.084 219.759C250.794 220.879 248.434 221.869 246.024 222.699C245.634 222.839 245.854 223.519 246.254 223.399L246.264 223.419Z" fill="#231F20"/>
<path d="M242.324 224.469C247.534 225.519 252.864 225.639 258.114 224.799C259.494 224.579 261.744 223.969 261.334 222.079C261.134 221.159 260.334 220.559 259.494 220.239C258.354 219.819 256.944 219.519 255.734 219.499C255.264 219.499 255.174 220.209 255.584 220.379C256.514 220.769 257.554 220.869 258.534 221.089C259.054 221.209 259.724 221.369 260.054 221.809C260.504 222.409 260.304 223.109 259.694 223.439C258.994 223.819 258.144 223.899 257.374 224.029C256.394 224.179 255.414 224.309 254.434 224.389C250.434 224.749 246.374 224.559 242.414 223.879C242.034 223.809 241.944 224.399 242.314 224.469H242.324Z" fill="#231F20"/>
<path d="M236.834 204.089C237.764 205.679 238.874 207.169 240.004 208.619C241.134 210.069 242.364 211.609 243.864 212.749C244.184 212.999 244.514 212.509 244.234 212.249C242.814 210.949 241.534 209.469 240.324 207.979C239.244 206.639 238.204 205.239 237.314 203.759C237.124 203.439 236.644 203.759 236.834 204.079V204.089Z" fill="#231F20"/>
<path d="M250.654 92.559C241.704 89.259 116.954 51.809 116.954 51.809C116.954 51.809 111.434 50.109 108.894 59.869L88.0543 131.089L234.964 173.219C244.644 139.299 254.484 104.009 254.484 104.009C254.484 104.009 258.724 95.519 250.664 92.549L250.654 92.559Z" fill="#2968B2"/>
<path d="M88.0544 131.099L70.2644 191.879C70.2644 191.879 66.4444 199.099 73.6644 202.489C77.1244 204.119 107.564 212.789 138.294 221.359L157.944 151.139L88.0544 131.099Z" fill="#FCC62D"/>
<path d="M157.944 151.139L138.294 221.359C171.594 230.649 205.244 239.839 205.244 239.839C205.244 239.839 212.884 242.809 216.704 234.319C218.464 230.399 226.654 202.319 234.964 173.219L157.944 151.129V151.139Z" fill="#94CBEC"/>
<path d="M159.464 103.059C159.714 102.589 159.914 102.089 160.104 101.579C161.414 98.089 162.204 94.189 162.164 90.449C162.144 88.739 161.964 86.879 161.094 85.359C159.874 83.239 156.854 83.649 154.984 84.739C153.234 85.759 152.304 87.359 151.454 89.139C149.614 92.999 148.774 97.339 149.174 101.599C149.384 103.899 150.264 106.529 152.564 107.279C153.984 107.739 155.604 107.299 156.794 106.429C157.984 105.559 158.804 104.319 159.474 103.039L159.464 103.059Z" fill="#FFFFFD"/>
<path d="M155.314 82.9091C151.704 86.7891 149.364 91.7091 148.774 96.9891C148.354 100.759 148.524 108.249 154.044 107.969C158.134 107.759 160.164 103.449 161.194 100.039C162.224 96.6291 162.864 93.1891 162.694 89.7291C162.554 86.7191 161.474 82.9891 157.924 82.7191C157.364 82.6791 157.244 83.5691 157.784 83.6891C163.404 84.9791 161.644 93.6891 160.694 97.6591C160.114 100.069 159.404 102.569 157.894 104.579C156.254 106.759 152.904 108.109 150.944 105.499C149.654 103.769 149.524 101.359 149.524 99.2791C149.544 93.3891 151.894 87.6591 155.784 83.2791C156.044 82.9891 155.574 82.6191 155.314 82.8991V82.9091Z" fill="#231F20"/>
<path d="M184.204 104.989C185.014 102.279 185.654 99.4391 185.554 96.5891C185.474 94.3091 185.094 91.0791 182.414 90.5391C181.434 90.3391 180.424 90.4791 179.434 90.6191C175.224 91.2291 173.004 97.1491 172.084 100.649C171.034 104.649 169.954 112.689 175.704 113.989C180.404 115.059 183.154 108.469 184.194 104.989H184.204Z" fill="#FFFFFD"/>
<path d="M180.624 89.6592C175.894 90.7292 173.294 95.0392 171.914 99.3792C170.854 102.719 170.144 106.629 171.104 110.069C172.014 113.329 175.394 115.759 178.754 114.259C182.114 112.759 183.704 108.619 184.684 105.429C185.584 102.519 186.254 99.4692 186.084 96.4192C185.974 94.4092 185.464 90.2392 183.014 89.7692C182.334 89.6392 182.244 90.6692 182.894 90.8192C183.834 91.0392 184.294 92.6692 184.544 93.4892C184.904 94.6792 185.024 95.9392 185.014 97.1692C184.984 99.4892 184.504 101.819 183.874 104.049C183.084 106.849 181.984 109.929 179.874 112.019C177.604 114.259 174.054 113.809 172.634 110.869C171.364 108.249 171.754 104.959 172.284 102.209C172.584 100.669 173.064 99.4292 173.664 97.9092C174.354 96.1592 174.904 94.7692 176.084 93.3592C177.344 91.8592 178.954 90.8092 180.854 90.3292C181.294 90.2192 181.054 89.5792 180.624 89.6692V89.6592Z" fill="#231F20"/>
<path d="M150.984 90.5292C150.384 91.8892 152.224 92.7992 153.284 92.9892C154.534 93.2192 155.874 92.9592 156.944 92.2792C158.124 91.5292 158.884 90.3492 159.274 89.0192C159.634 87.7792 159.824 86.3392 159.284 85.1292C158.994 84.4792 158.534 83.9292 157.904 83.5892C157.274 83.2492 156.454 83.0692 155.804 83.3992C155.344 83.6392 155.594 84.3892 156.084 84.3592C156.414 84.3392 156.714 84.2392 157.044 84.3392C157.354 84.4292 157.654 84.6492 157.874 84.8892C158.264 85.3292 158.434 85.9492 158.494 86.5192C158.624 87.6892 158.324 88.8492 157.674 89.8192C157.024 90.7892 156.194 91.4692 155.104 91.7492C154.544 91.8892 153.954 91.9092 153.384 91.7792C153.054 91.7092 152.734 91.5892 152.444 91.4292C152.324 91.3592 151.894 91.1092 151.934 90.9792C152.164 90.3492 151.254 89.8692 150.974 90.5092L150.984 90.5292Z" fill="#231F20"/>
<path d="M173.724 97.0791C173.504 98.8191 175.084 99.7391 176.634 99.7591C177.854 99.7691 179.054 99.3491 180.064 98.6891C182.034 97.4091 183.324 95.0391 183.114 92.6791C183.054 91.9691 182.824 91.2391 182.334 90.7091C181.884 90.2291 180.774 89.6291 180.154 90.1091C179.874 90.3191 179.904 90.6991 180.204 90.8791C180.584 91.1091 180.954 90.9991 181.274 91.3691C181.454 91.5691 181.594 91.8091 181.684 92.0591C181.884 92.5791 181.884 93.1691 181.824 93.7091C181.704 94.7291 181.254 95.6791 180.604 96.4791C179.954 97.2791 179.074 97.9191 178.084 98.2691C177.584 98.4391 177.064 98.5391 176.534 98.5291C175.744 98.5291 174.524 98.1491 174.504 97.1591C174.494 96.6591 173.784 96.5691 173.714 97.0891L173.724 97.0791Z" fill="#231F20"/>
<path d="M156.654 91.4291C157.974 90.5891 158.844 89.0591 158.884 87.4891C158.904 86.8591 158.794 86.2191 158.624 85.6091C158.454 85.0091 158.214 84.3891 157.734 83.9991C157.144 83.5091 156.274 83.4491 155.544 83.6991C154.814 83.9491 154.224 84.4991 153.754 85.1091C153.224 85.7891 152.824 86.5591 152.424 87.3291C151.734 88.6591 150.094 90.3691 151.744 91.5791C152.414 92.0691 153.434 92.1991 154.234 92.1691C155.034 92.1391 155.964 91.4291 156.664 91.4291H156.654Z" fill="#231F20"/>
<path d="M177.154 92.3892C176.474 92.9992 175.794 93.6092 175.104 94.2192C174.284 94.9592 173.374 95.8992 173.564 96.9892C173.714 97.8792 174.584 98.4892 175.464 98.6892C177.454 99.1392 179.464 97.9992 180.944 96.5992C181.424 96.1392 181.884 95.6392 182.154 95.0392C182.714 93.7892 182.644 91.5492 181.284 90.8092C179.774 89.9892 178.194 91.4692 177.154 92.3992V92.3892Z" fill="#231F20"/>
<path d="M155.054 130.669C159.234 136.029 166.514 138.079 173.094 137.669C180.074 137.229 186.784 134.449 192.354 130.279C193.874 129.139 195.304 127.899 196.634 126.549C198.134 125.029 199.984 123.189 200.794 121.189C201.114 120.409 200.144 119.329 199.394 120.019C197.964 121.329 196.884 123.009 195.544 124.409C194.104 125.909 192.554 127.289 190.894 128.539C187.654 130.979 183.984 132.899 180.144 134.199C171.774 137.019 162.264 136.509 155.654 130.109C155.274 129.739 154.744 130.259 155.064 130.669H155.054Z" fill="#FFFFFD"/>
<path d="M195.514 113.689C197.114 119.129 201.684 123.539 207.244 124.709C208.004 124.869 208.384 123.619 207.624 123.379C202.674 121.779 198.434 118.299 196.564 113.349C196.344 112.769 195.334 113.079 195.514 113.689Z" fill="#FFFFFD"/>
<path d="M154.104 89.4091C154.347 89.4091 154.544 89.23 154.544 89.0091C154.544 88.7882 154.347 88.6091 154.104 88.6091C153.861 88.6091 153.664 88.7882 153.664 89.0091C153.664 89.23 153.861 89.4091 154.104 89.4091Z" fill="#FFFFFD"/>
<path d="M176.474 95.539C176.717 95.539 176.914 95.3599 176.914 95.139C176.914 94.9181 176.717 94.739 176.474 94.739C176.231 94.739 176.034 94.9181 176.034 95.139C176.034 95.3599 176.231 95.539 176.474 95.539Z" fill="#FFFFFD"/>
<g clip-path="url(#clip1_4323_12)">
<path d="M56.0908 230.855H61.0097V252.543H27.6766V230.855H33.1451" stroke="#938E83" stroke-width="0.67" stroke-miterlimit="10"/>
<path d="M56.0909 220.741H33.1451V243.943H56.0909V220.741Z" stroke="#938E83" stroke-width="0.67" stroke-miterlimit="10"/>
<path d="M27.8003 252.543L24.6401 258.99H64.17L61.0098 252.543H27.8003Z" stroke="#938E83" stroke-width="0.67" stroke-miterlimit="10"/>
<path d="M24.6402 258.99V260.49C24.6402 261.226 25.231 261.81 25.9455 261.81H62.851C63.5792 261.81 64.1563 261.212 64.1563 260.49V258.99H24.6265H24.6402Z" stroke="#938E83" stroke-width="0.67" stroke-miterlimit="10"/>
<path d="M39.0533 258.989L40.0838 255.766H48.7263L49.6468 258.989" stroke="#938E83" stroke-width="0.67" stroke-miterlimit="10"/>
<path d="M39.4929 223.13H38.8472V226.381H39.4929V223.13Z" fill="#938E83"/>
<path d="M48.7949 223.13H48.1492V226.381H48.7949V223.13Z" fill="#938E83"/>
<path d="M41.7326 224.923L40.7158 223.297C40.6471 223.158 40.496 223.089 40.3586 223.13C40.2212 223.172 40.125 223.311 40.125 223.45V226.368H40.7708V224.575L41.7875 226.201C41.8425 226.298 41.9524 226.368 42.0623 226.368C42.0898 226.368 42.1173 226.368 42.1585 226.368C42.2959 226.326 42.3921 226.187 42.3921 226.048V223.13H41.7463V224.923H41.7326Z" fill="#938E83"/>
<path d="M44.302 224.978L43.986 225.464L43.6699 224.978V223.13H43.0242V225.075C43.0242 225.075 43.0379 225.201 43.0791 225.256L43.7249 226.229C43.7799 226.312 43.8898 226.368 43.986 226.368C44.0821 226.368 44.1921 226.312 44.247 226.229L44.8928 225.256C44.8928 225.256 44.9478 225.145 44.9478 225.075V223.13H44.302V224.978Z" fill="#938E83"/>
<path d="M46.5553 223.13C46.0194 223.13 45.5935 223.561 45.5935 224.103V225.395C45.5935 225.937 46.0194 226.368 46.5553 226.368C47.0912 226.368 47.5171 225.937 47.5171 225.395V224.103C47.5171 223.561 47.0912 223.13 46.5553 223.13ZM46.8713 225.409C46.8713 225.59 46.7339 225.728 46.5553 225.728C46.3767 225.728 46.2393 225.59 46.2393 225.409V224.117C46.2393 223.936 46.3767 223.797 46.5553 223.797C46.7339 223.797 46.8713 223.936 46.8713 224.117V225.409Z" fill="#938E83"/>
<path d="M50.4025 223.783H50.7185C50.8971 223.783 51.0345 223.922 51.0345 224.103H51.6803C51.6803 223.561 51.2543 223.13 50.7185 223.13H50.4025C49.8666 223.13 49.4407 223.561 49.4407 224.103V225.395C49.4407 225.937 49.8666 226.368 50.4025 226.368H50.7185C51.2543 226.368 51.6803 225.937 51.6803 225.395H51.0345C51.0345 225.576 50.8971 225.715 50.7185 225.715H50.4025C50.2239 225.715 50.0865 225.576 50.0865 225.395V224.103C50.0865 223.922 50.2239 223.783 50.4025 223.783Z" fill="#938E83"/>
<path d="M54.2498 223.783V223.13H52.6422C52.4636 223.13 52.3262 223.269 52.3262 223.45V226.048C52.3262 226.229 52.4636 226.368 52.6422 226.368H54.2498V225.715H52.9719V225.062H54.2498V224.409H52.9719V223.756H54.2498V223.783Z" fill="#938E83"/>
<path d="M36.9923 225.103C36.9923 224.631 36.8962 224.27 36.745 224.02C36.5664 223.742 36.3191 223.603 35.9893 223.603C35.6596 223.603 35.3985 223.742 35.2061 224.006C35.0138 224.27 34.9176 224.631 34.9176 225.062C34.9176 225.451 35 225.77 35.1649 226.006C35.3573 226.284 35.6183 226.423 35.9344 226.423C36.2504 226.423 36.5939 226.187 36.9923 225.728L36.4702 225.228C36.4427 225.367 36.3878 225.506 36.3053 225.631C36.2092 225.784 36.0992 225.854 35.9756 225.854C35.8382 225.854 35.7283 225.756 35.6458 225.576C35.5909 225.437 35.5634 225.284 35.5496 225.117C35.9481 225.103 36.3191 225.089 36.6351 225.089C36.7725 225.089 36.8962 225.089 36.9923 225.103ZM35.6046 224.534C35.6046 224.534 35.6321 224.436 35.6458 224.395C35.7283 224.228 35.8382 224.145 35.9618 224.145C36.058 224.145 36.1405 224.172 36.1954 224.242C36.2504 224.311 36.2916 224.409 36.3053 224.52H35.5909L35.6046 224.534Z" fill="#938E83"/>
<path d="M38.3526 224.7H37.4045V225.159H38.3526V224.7Z" fill="#938E83"/>
<path d="M48.0118 235.246H49.5644C49.9766 235.246 50.3201 235.51 50.4575 235.885H48.0118V236.51H50.4575C50.3338 236.885 49.9766 237.149 49.5644 237.149H48.0118V237.83L50.4163 240.261L50.8422 239.83L48.8087 237.774H49.5507C50.3064 237.774 50.9247 237.232 51.0758 236.51H51.6804V235.885H51.0758C51.0346 235.648 50.9247 235.426 50.7873 235.246H51.6666V234.62H47.998V235.246H48.0118Z" fill="#938E83"/>
<path d="M54.7856 229.883H34.4642V242.053H54.7856V229.883Z" stroke="#938E83" stroke-width="0.67" stroke-miterlimit="10"/>
<path d="M34.6703 232.745H54.7718" stroke="#938E83" stroke-width="0.67" stroke-miterlimit="10"/>
<path d="M44.5906 229.883V242.053" stroke="#938E83" stroke-width="0.67" stroke-miterlimit="10"/>
<path d="M35.9619 235.204H43.4914" stroke="#938E83" stroke-width="0.67" stroke-miterlimit="10"/>
<path d="M35.9619 237.482H43.4914" stroke="#938E83" stroke-width="0.67" stroke-miterlimit="10"/>
<path d="M35.9619 239.775H43.4914" stroke="#938E83" stroke-width="0.67" stroke-miterlimit="10"/>
</g>
<g clip-path="url(#clip2_4323_12)">
<path d="M40.3711 134.62V168.247H11.2256V128.104H33.4552L40.3711 134.62Z" stroke="#938E83" stroke-width="0.64" stroke-miterlimit="10"/>
<path d="M33.4552 128.104V134.714H40.3577" stroke="#938E83" stroke-width="0.64" stroke-miterlimit="10"/>
<path d="M25.9519 133.63H28.1949" stroke="#938E83" stroke-width="0.64" stroke-miterlimit="10"/>
<path d="M25.9519 136.106H31.6395" stroke="#938E83" stroke-width="0.64" stroke-miterlimit="10"/>
<path d="M25.9519 138.635H29.3698" stroke="#938E83" stroke-width="0.64" stroke-miterlimit="10"/>
<path d="M30.0907 138.635L31.6928 138.594" stroke="#938E83" stroke-width="0.64" stroke-miterlimit="10"/>
<path d="M28.8757 133.63H30.5179" stroke="#938E83" stroke-width="0.64" stroke-miterlimit="10"/>
<path d="M37.3003 141.833H14.283V154.612H37.3003V141.833Z" stroke="#938E83" stroke-width="0.64" stroke-miterlimit="10"/>
<path d="M25.9118 144.562H15.7115" stroke="#938E83" stroke-width="0.64" stroke-miterlimit="10"/>
<path d="M30.6915 145.499V143.599H27.3537V145.499H30.6915Z" fill="#938E83"/>
<path d="M35.7783 145.499V143.599H32.4405V145.499H35.7783Z" fill="#938E83"/>
<path d="M25.9118 148.363H15.7115" stroke="#938E83" stroke-width="0.64" stroke-miterlimit="10"/>
<path d="M30.6915 149.3V147.399H27.3537V149.3H30.6915Z" fill="#938E83"/>
<path d="M35.7783 149.313V147.413H32.4405V149.313H35.7783Z" fill="#938E83"/>
<path d="M25.9118 152.203H15.7115" stroke="#938E83" stroke-width="0.64" stroke-miterlimit="10"/>
<path d="M30.6915 153.14V151.24H27.3537V153.14H30.6915Z" fill="#938E83"/>
<path d="M35.7783 153.153V151.253H32.4405V153.153H35.7783Z" fill="#938E83"/>
<path d="M14.4966 159.911H20.5046" stroke="#938E83" stroke-width="0.64" stroke-miterlimit="10"/>
<path d="M15.8851 162.467H20.6515" stroke="#938E83" stroke-width="0.64" stroke-miterlimit="10"/>
<path d="M25.8851 164.113C27.8612 164.113 29.4632 162.507 29.4632 160.526C29.4632 158.546 27.8612 156.94 25.8851 156.94C23.909 156.94 22.307 158.546 22.307 160.526C22.307 162.507 23.909 164.113 25.8851 164.113Z" stroke="#938E83" stroke-width="0.64" stroke-miterlimit="10"/>
<path d="M25.8451 161.677C26.4571 161.677 26.9532 161.18 26.9532 160.566C26.9532 159.953 26.4571 159.456 25.8451 159.456C25.2331 159.456 24.7369 159.953 24.7369 160.566C24.7369 161.18 25.2331 161.677 25.8451 161.677Z" stroke="#938E83" stroke-width="0.64" stroke-miterlimit="10"/>
<path d="M36.2856 161.624V159.523C36.2856 159.094 35.9389 158.747 35.5113 158.747H32.2803C31.8526 158.747 31.5059 159.094 31.5059 159.523V161.624C31.5059 162.052 31.8526 162.4 32.2803 162.4H35.5113C35.9389 162.4 36.2856 162.052 36.2856 161.624Z" fill="#938E83"/>
<path d="M16.7129 132.386C16.4592 132.185 16.1254 132.078 15.6982 132.078C15.3377 132.078 15.0574 132.145 14.8437 132.292C14.6301 132.426 14.4699 132.627 14.3631 132.881C14.2563 133.135 14.1895 133.416 14.1628 133.737C14.1228 134.058 14.1094 134.473 14.0961 134.968V135.892C14.0961 136.4 14.1094 136.828 14.1361 137.176C14.1628 137.511 14.2296 137.818 14.3364 138.073C14.4432 138.327 14.6034 138.528 14.817 138.675C15.0306 138.822 15.3244 138.889 15.6849 138.889C15.8718 138.876 16.0453 138.795 16.2055 138.661C16.3658 138.528 16.4726 138.3 16.5527 137.992V138.742H17.2469V135.249H15.7249V136.199H16.3658C16.3658 136.748 16.3124 137.176 16.2055 137.471C16.0987 137.765 15.9252 137.912 15.6849 137.912C15.538 137.912 15.4178 137.872 15.3244 137.778C15.2309 137.685 15.1642 137.578 15.1241 137.43C15.0841 137.283 15.0574 137.149 15.044 136.989C15.044 136.842 15.0173 136.668 15.0173 136.494V134.687C15.0173 134.446 15.0173 134.232 15.044 134.045C15.044 133.858 15.0841 133.697 15.1241 133.536C15.1642 133.389 15.2309 133.269 15.3244 133.175C15.4178 133.081 15.538 133.041 15.6849 133.041C15.8317 133.041 15.9519 133.081 16.0453 133.148C16.1388 133.215 16.2055 133.296 16.2456 133.403C16.2857 133.51 16.3124 133.63 16.3257 133.764C16.3257 133.898 16.3524 134.058 16.3524 134.259H17.2736V134.098C17.2736 133.817 17.2469 133.603 17.2336 133.47C17.1401 132.934 16.9532 132.573 16.7129 132.372V132.386Z" fill="#938E83"/>
<path d="M20.6515 135.651C20.5848 135.57 20.5047 135.477 20.4112 135.383C20.3177 135.289 20.2109 135.196 20.1175 135.102C20.024 135.008 19.9306 134.928 19.8371 134.848C19.7436 134.767 19.6502 134.674 19.53 134.58C19.3565 134.42 19.223 134.272 19.1428 134.165C19.0627 134.045 19.0227 133.871 19.0227 133.657C19.0227 133.443 19.0627 133.282 19.1562 133.188C19.2497 133.095 19.3698 133.041 19.53 133.041C19.7436 133.041 19.8905 133.135 19.9573 133.336C20.024 133.536 20.0641 133.817 20.0641 134.192H20.9452V134.125C20.9452 133.871 20.9452 133.643 20.9185 133.443C20.8918 133.229 20.8384 133.028 20.745 132.814C20.6515 132.6 20.518 132.426 20.3177 132.279C20.1175 132.131 19.8505 132.064 19.5167 132.064C19.036 132.064 18.6756 132.212 18.4352 132.506C18.1949 132.8 18.0748 133.229 18.0748 133.791C18.0748 134.152 18.1549 134.486 18.3151 134.794C18.4352 134.982 18.5554 135.156 18.7023 135.303C18.8491 135.45 19.036 135.624 19.263 135.825C19.49 136.025 19.6502 136.172 19.757 136.28C19.8772 136.387 19.9706 136.507 20.0374 136.654C20.1041 136.788 20.1308 136.962 20.1308 137.136C20.1308 137.644 19.9439 137.899 19.5567 137.899C19.3565 137.899 19.2096 137.805 19.1161 137.618C19.0227 137.43 18.9826 137.163 18.9826 136.801V136.413H18.0614V136.895C18.0614 137.189 18.0881 137.47 18.1415 137.711C18.1949 137.952 18.2884 138.153 18.3952 138.327C18.5153 138.501 18.6622 138.635 18.8625 138.728C19.0627 138.822 19.2897 138.875 19.5567 138.875C20.0107 138.875 20.3845 138.715 20.6649 138.394C20.9452 138.073 21.0788 137.604 21.0788 137.002C21.0788 136.708 21.0521 136.467 20.9853 136.253C20.9185 136.039 20.8117 135.838 20.6649 135.637L20.6515 135.651Z" fill="#938E83"/>
<path d="M21.4926 132.225V133.189H22.574V138.742H23.4819V133.189H24.55V132.225H21.4926Z" fill="#938E83"/>
</g>
<g clip-path="url(#clip3_4323_12)">
<path d="M194.599 21.9209H202.231C203.368 21.9209 204.283 22.8487 204.283 24.0019V47.0255C204.283 48.1786 203.368 49.1065 202.231 49.1065H170.043C168.906 49.1065 167.991 48.1786 167.991 47.0255V24.0019C167.991 22.8487 168.906 21.9209 170.043 21.9209H177.505" stroke="#938E83" stroke-width="0.74" stroke-miterlimit="10"/>
<path d="M194.782 21.9208V39.9076C194.782 41.0607 193.867 41.9886 192.73 41.9886H179.57C178.433 41.9886 177.518 41.0607 177.518 39.9076V18.1962C177.518 17.0431 178.433 16.1152 179.57 16.1152H188.13L194.782 21.9341V21.9208Z" stroke="#938E83" stroke-width="0.74" stroke-miterlimit="10"/>
<path d="M168.122 44.4939H204.374" stroke="#938E83" stroke-width="0.74" stroke-miterlimit="10"/>
<path d="M188.13 16.1152V21.9208H194.782" stroke="#938E83" stroke-width="0.74" stroke-miterlimit="10"/>
<path d="M189.267 49.1196C188.797 50.7102 188.797 52.4068 189.267 53.9974V54.0239H182.759V53.9974C183.229 52.4068 183.229 50.7102 182.759 49.1196" stroke="#938E83" stroke-width="0.74" stroke-miterlimit="10"/>
<path d="M178.316 54.0239H193.371" stroke="#938E83" stroke-width="0.74" stroke-miterlimit="10"/>
<path d="M180.916 21.6689H184.536" stroke="#938E83" stroke-width="0.74" stroke-miterlimit="10"/>
<path d="M184.419 26.2551H188.039" stroke="#938E83" stroke-width="0.74" stroke-miterlimit="10"/>
<path d="M189.502 26.2551H191.345" stroke="#938E83" stroke-width="0.74" stroke-miterlimit="10"/>
<path d="M180.89 29.9797H186.17" stroke="#938E83" stroke-width="0.74" stroke-miterlimit="10"/>
<path d="M187.803 29.9797H191.502" stroke="#938E83" stroke-width="0.74" stroke-miterlimit="10"/>
<path d="M180.929 33.7441H184.536" stroke="#938E83" stroke-width="0.74" stroke-miterlimit="10"/>
<path d="M186.091 33.7441H189.711" stroke="#938E83" stroke-width="0.74" stroke-miterlimit="10"/>
<path d="M187.006 37.2302H190.626" stroke="#938E83" stroke-width="0.74" stroke-miterlimit="10"/>
<path d="M185.255 9.85891V8.08277C185.255 7.51282 185.712 7.03564 186.287 7.03564H191.214" stroke="#938E83" stroke-width="0.74" stroke-miterlimit="10"/>
<path d="M185.255 12.7087V10.6277" stroke="#938E83" stroke-width="0.74" stroke-miterlimit="10"/>
<path d="M185.255 15.4128V13.3716" stroke="#938E83" stroke-width="0.74" stroke-miterlimit="10"/>
<path d="M189.032 4.84863L191.188 7.03567L189.032 9.20946" stroke="#938E83" stroke-width="0.74" stroke-miterlimit="10"/>
<path d="M219.024 12.51C219.024 14.9754 217.221 17.0166 214.869 17.3347C214.659 17.3612 214.437 17.3745 214.228 17.3745H198.363V17.348C195.867 17.0696 193.933 14.9356 193.933 12.3377C193.933 10.1374 195.331 8.25518 197.265 7.57918C197.265 7.4864 197.265 7.40687 197.265 7.31409C197.265 5.56446 198.663 4.1462 200.389 4.1462C201.003 4.1462 201.591 4.33176 202.074 4.63662C203.172 2.48935 205.394 1.01807 207.955 1.01807C211.588 1.01807 214.542 3.98714 214.594 7.65871C217.077 7.84428 219.037 9.93854 219.037 12.51H219.024Z" stroke="#938E83" stroke-width="0.74" stroke-miterlimit="10"/>
<path d="M214.869 17.3347L214.842 17.3745H214.215C214.437 17.3745 214.646 17.3612 214.855 17.3347H214.869Z" stroke="#938E83" stroke-width="0.74" stroke-miterlimit="10"/>
<path d="M197.265 7.56592C197.265 7.56592 199.225 7.69847 199.892 8.46724" stroke="#938E83" stroke-width="0.74" stroke-miterlimit="10"/>
<path d="M214.581 7.65869C214.581 7.65869 214.515 9.10346 213.862 10.6145" stroke="#938E83" stroke-width="0.74" stroke-miterlimit="10"/>
</g>
<g clip-path="url(#clip4_4323_12)">
<path d="M251.268 253.301H290.223V282.238H251.268V253.301Z" stroke="#938E83" stroke-width="0.8" stroke-miterlimit="10"/>
<path d="M270.778 279.873H268.95C268.545 279.873 268.219 279.541 268.219 279.129V264.222C268.219 263.81 268.545 263.478 268.95 263.478H270.909C271.314 263.478 271.64 263.81 271.64 264.222V277.176" stroke="#938E83" stroke-width="0.8" stroke-miterlimit="10"/>
<path d="M290.223 253.301L270.609 242.394L251.268 253.301" stroke="#938E83" stroke-width="0.8" stroke-miterlimit="10"/>
<path d="M255.225 256.198H286.267V282.251H255.225V256.198Z" stroke="#938E83" stroke-width="0.8" stroke-miterlimit="10"/>
<path d="M286.41 260.369H255.225" stroke="#938E83" stroke-width="0.8" stroke-miterlimit="10"/>
<path d="M281.252 282.065C279.737 282.065 278.51 280.816 278.51 279.275C278.51 277.734 279.737 276.485 281.252 276.485C282.767 276.485 283.994 277.734 283.994 279.275C283.994 280.816 282.767 282.065 281.252 282.065Z" stroke="#938E83" stroke-width="0.8" stroke-miterlimit="10"/>
<path d="M273.456 282.065C271.941 282.065 270.713 280.816 270.713 279.275C270.713 277.734 271.941 276.485 273.456 276.485C274.97 276.485 276.198 277.734 276.198 279.275C276.198 280.816 274.97 282.065 273.456 282.065Z" stroke="#938E83" stroke-width="0.8" stroke-miterlimit="10"/>
<path d="M276.159 278.783H278.549" stroke="#938E83" stroke-width="0.8" stroke-miterlimit="10"/>
<path d="M283.955 278.783H283.994V272.353C283.994 271.649 283.433 271.078 282.741 271.078H280.037V266.893C280.037 266.188 279.476 265.617 278.784 265.617H274.396C273.286 265.617 272.293 266.122 271.64 266.919" stroke="#938E83" stroke-width="0.8" stroke-miterlimit="10"/>
<path d="M280.011 269.311H277.7C276.955 269.311 276.342 269.935 276.342 270.692V271.064C276.342 271.822 275.728 272.446 274.983 272.446C274.239 272.446 273.625 273.07 273.625 273.828V275.09H271.64" stroke="#938E83" stroke-width="0.8" stroke-miterlimit="10"/>
<path d="M273.639 275.09H283.994" stroke="#938E83" stroke-width="0.8" stroke-miterlimit="10"/>
<path d="M280.39 272.592H282.532V273.868H280.39V272.592Z" stroke="#938E83" stroke-width="0.8" stroke-miterlimit="10"/>
<path d="M268.219 265.67H263.531C263.048 265.67 262.643 266.069 262.643 266.574V277.893H268.219V265.67Z" stroke="#938E83" stroke-width="0.8" stroke-miterlimit="10"/>
<path d="M262.643 271.117H257.954C257.471 271.117 257.066 271.516 257.066 272.021V276.99C257.066 277.481 257.458 277.893 257.954 277.893H262.643V271.117Z" stroke="#938E83" stroke-width="0.8" stroke-miterlimit="10"/>
<path d="M265.803 265.777V268.42" stroke="#938E83" stroke-width="0.8" stroke-miterlimit="10"/>
<path d="M262.643 271.117H268.219" stroke="#938E83" stroke-width="0.8" stroke-miterlimit="10"/>
<path d="M265.79 271.21V273.788" stroke="#938E83" stroke-width="0.8" stroke-miterlimit="10"/>
<path d="M260.384 271.21V273.788" stroke="#938E83" stroke-width="0.8" stroke-miterlimit="10"/>
<path d="M280.037 271.091L277.412 275.024" stroke="#938E83" stroke-width="0.8" stroke-miterlimit="10"/>
</g>
<defs>
<clipPath id="clip0_4323_12">
<rect width="50" height="46" fill="white" transform="matrix(-1 0 0 1 333.994 122.499)"/>
</clipPath>
<clipPath id="clip1_4323_12">
<rect width="41" height="42" fill="white" transform="translate(23.8982 220.282)"/>
</clipPath>
<clipPath id="clip2_4323_12">
<rect width="30" height="41" fill="white" transform="translate(10.7983 127.676)"/>
</clipPath>
<clipPath id="clip3_4323_12">
<rect width="52" height="54" fill="white" transform="translate(167.508 0.514404)"/>
</clipPath>
<clipPath id="clip4_4323_12">
<rect width="40" height="41" fill="white" transform="matrix(-1 0 0 1 290.746 241.782)"/>
</clipPath>
</defs>
</svg>
