<svg width="500" height="425" viewBox="0 0 500 425" fill="none" xmlns="http://www.w3.org/2000/svg">
<path d="M223.912 130.394L261.162 130.696C261.162 130.696 263.624 130.394 264.279 132.243C264.279 132.243 270.75 148.552 271.052 154.4C271.353 160.248 269.826 159.324 272.288 167.021C274.75 174.719 281.824 192.876 285.792 207.658C291.162 227.509 292.564 248.585 292.907 269.08C292.959 272.373 294.933 300.669 289.791 300.669C285.542 300.669 246.35 305.863 245.882 298.311C244.002 268.187 249.435 238.779 238.974 209.496C234.913 198.122 230.259 186.114 226.81 174.178C223.362 162.243 222.759 149.913 220.516 137.738C218.989 129.439 223.912 130.394 223.912 130.394Z" fill="#003C86"/>
<path d="M220.222 134.078C220.596 129.778 223.868 130.391 223.868 130.391L261.118 130.692C261.118 130.692 263.58 130.391 264.234 132.24C264.234 132.24 270.706 148.549 271.007 154.397C271.097 155.942 271.052 157.492 270.872 159.03L270.083 160.245C270.083 160.245 268.857 171.017 254.075 171.672C239.293 172.326 230.994 165.522 227.919 159.061C224.844 152.6 223.608 142.129 221.146 135.969C220.874 135.322 220.565 134.691 220.222 134.078Z" fill="white" stroke="#263238" stroke-width="1.03897" stroke-linecap="round" stroke-linejoin="round"/>
<path d="M228.897 146.057C231.39 155.052 229.936 157.545 232.388 173.065C234.839 188.584 243.876 206.035 247.377 222.022C250.878 238.008 249.371 294.465 248.873 296.958C248.685 298.286 248.612 299.628 248.655 300.968C246.982 300.345 245.964 299.483 245.891 298.298C244.011 268.174 249.444 238.767 238.984 209.484C234.922 198.109 230.268 186.101 226.82 174.166C223.371 162.23 222.769 149.9 220.525 137.726C219.569 132.615 221.065 131.005 222.363 130.517C225.187 135.401 227.383 140.622 228.897 146.057Z" fill="white" stroke="#263238" stroke-width="1.03897" stroke-linecap="round" stroke-linejoin="round"/>
<path d="M300.784 373.402L301.033 373.205V338.438H296.036V316.416H314.516V338.438H309.52V373.756L353.74 387.852V391.342C353.74 393.536 351.935 395.341 349.741 395.341C347.547 395.341 345.741 393.536 345.741 391.342V390.843L308.772 386.553V391.851C308.671 393.697 307.125 395.161 305.276 395.161C303.428 395.161 301.881 393.697 301.781 391.851V386.377L263.346 390.843V391.342C263.346 393.536 261.541 395.341 259.347 395.341C257.153 395.341 255.348 393.536 255.348 391.342V387.852L300.784 373.402Z" fill="#263238" stroke="#263238" stroke-width="1.03897" stroke-linecap="round" stroke-linejoin="round"/>
<path fill-rule="evenodd" clip-rule="evenodd" d="M242.997 317.684C242.997 319.24 244.261 320.504 245.817 320.504H360.092C361.648 320.504 362.912 319.24 362.912 317.684V297.833C362.912 296.276 361.648 295.013 360.092 295.013H245.817C244.261 295.013 242.997 296.276 242.997 297.833V317.684Z" fill="#263238" stroke="#263238" stroke-width="1.03897" stroke-linecap="round" stroke-linejoin="round"/>
<path d="M418.882 248.269H103.73V404.853H418.882V248.269Z" fill="#263238"/>
<path d="M418.882 248.269H103.73V404.853H418.882V248.269Z" fill="white" stroke="#263238" stroke-width="1.03897" stroke-linecap="round" stroke-linejoin="round"/>
<path d="M418.882 248.269H103.73V404.853H418.882V248.269Z" stroke="#263238" stroke-width="1.03897" stroke-linecap="round" stroke-linejoin="round"/>
<path d="M418.787 251.796H103.957V255.868H418.787V251.796Z" fill="#263238"/>
<path d="M424.549 245.846H101.804V252.276H424.549V245.846Z" fill="white" stroke="#263238" stroke-width="1.03897" stroke-linecap="round" stroke-linejoin="round"/>
<path d="M400.832 228.2C400.832 229.873 399.479 231.227 397.805 231.227H302.573C300.901 231.227 299.545 229.873 299.545 228.2V167.61C299.545 165.938 300.901 164.583 302.573 164.583H397.805C399.479 164.583 400.832 165.938 400.832 167.61V228.2Z" fill="#EBF3FA" stroke="#263238" stroke-width="0.846067" stroke-miterlimit="2" stroke-linejoin="round"/>
<path d="M397.15 168.309H303.172V227.489H397.15V168.309Z" fill="white" stroke="#263238" stroke-width="0.846067" stroke-miterlimit="2" stroke-linejoin="round"/>
<path d="M358.603 231.229H341.812V241.608H358.603V231.229Z" fill="#EBF3FA" stroke="#263238" stroke-width="0.846067" stroke-miterlimit="2" stroke-linejoin="round"/>
<path d="M362.938 241.611H337.394V245.589H362.938V241.611Z" fill="#EBF3FA" stroke="#263238" stroke-width="0.846067" stroke-miterlimit="2" stroke-linejoin="round"/>
<path d="M312.366 190.115H327.95V197.909H312.366V190.115Z" fill="#3069B1"/>
<path d="M312.369 197.903H320.162V205.695H312.369V197.903Z" fill="#FFC032"/>
<path d="M320.16 197.903H327.95V205.695H320.16V197.903Z" fill="#90C4E9"/>
<path d="M336.023 202.473V194.858H333.122V193.839H340.1V194.858H337.187V202.473H336.023Z" fill="#3069B1"/>
<path d="M343.861 199.353C343.469 199.51 342.88 199.644 342.095 199.754C341.651 199.817 341.337 199.888 341.153 199.966C340.969 200.044 340.827 200.16 340.727 200.31C340.627 200.461 340.577 200.63 340.577 200.814C340.577 201.097 340.686 201.332 340.904 201.521C341.122 201.71 341.442 201.803 341.861 201.803C342.277 201.803 342.648 201.715 342.973 201.535C343.297 201.357 343.534 201.113 343.687 200.803C343.803 200.563 343.861 200.21 343.861 199.742V199.353ZM343.951 201.721C343.551 202.055 343.165 202.29 342.795 202.428C342.425 202.565 342.028 202.634 341.603 202.634C340.903 202.634 340.364 202.466 339.987 202.13C339.612 201.795 339.424 201.365 339.424 200.844C339.424 200.537 339.494 200.258 339.636 200.004C339.779 199.751 339.965 199.548 340.195 199.394C340.425 199.241 340.685 199.126 340.972 199.047C341.185 198.993 341.505 198.939 341.933 198.888C342.806 198.786 343.449 198.664 343.861 198.523C343.865 198.378 343.867 198.286 343.867 198.247C343.867 197.814 343.765 197.51 343.561 197.334C343.285 197.094 342.874 196.975 342.33 196.975C341.821 196.975 341.445 197.062 341.204 197.236C340.962 197.411 340.783 197.72 340.667 198.164L339.61 198.022C339.706 197.579 339.864 197.221 340.084 196.947C340.304 196.674 340.622 196.465 341.039 196.317C341.455 196.17 341.937 196.097 342.486 196.097C343.03 196.097 343.473 196.159 343.812 196.285C344.154 196.411 344.403 196.569 344.563 196.759C344.724 196.949 344.836 197.19 344.9 197.481C344.936 197.661 344.954 197.987 344.954 198.458V199.872C344.954 200.857 344.977 201.481 345.023 201.742C345.069 202.003 345.16 202.253 345.297 202.493H344.166C344.055 202.272 343.983 202.015 343.951 201.721Z" fill="#3069B1"/>
<path d="M347.69 193.839H346.609V202.473H347.69V193.839Z" fill="#3069B1"/>
<path d="M350.436 193.839H349.356V202.473H350.436V193.839Z" fill="#3069B1"/>
<path d="M352.065 204.873L351.945 203.877C352.181 203.941 352.387 203.972 352.563 203.972C352.803 203.972 352.995 203.933 353.14 203.855C353.284 203.776 353.402 203.666 353.494 203.524C353.562 203.419 353.671 203.156 353.824 202.735C353.844 202.677 353.876 202.59 353.92 202.476L351.5 196.21H352.665L353.993 199.832C354.164 200.291 354.319 200.774 354.454 201.28C354.578 200.794 354.726 200.319 354.899 199.855L356.262 196.21H357.343L354.916 202.571C354.656 203.257 354.454 203.731 354.311 203.99C354.118 204.34 353.898 204.595 353.65 204.758C353.402 204.921 353.105 205.003 352.761 205.003C352.552 205.003 352.321 204.959 352.065 204.873Z" fill="#3069B1"/>
<path d="M359.549 197.944H361.825C362.577 197.944 363.111 197.807 363.428 197.532C363.744 197.257 363.902 196.87 363.902 196.371C363.902 196.01 363.81 195.701 363.623 195.445C363.437 195.187 363.191 195.017 362.888 194.935C362.692 194.884 362.329 194.857 361.801 194.857H359.549V197.944ZM358.384 202.473V193.839H361.705C362.289 193.839 362.736 193.867 363.044 193.921C363.476 193.992 363.838 194.127 364.13 194.325C364.423 194.523 364.658 194.801 364.837 195.159C365.014 195.516 365.103 195.909 365.103 196.336C365.103 197.07 364.865 197.692 364.389 198.201C363.913 198.709 363.052 198.962 361.806 198.962H359.549V202.473H358.384Z" fill="#3069B1"/>
<path d="M366.435 202.493V196.238H367.407V197.186C367.655 196.743 367.884 196.45 368.095 196.309C368.304 196.168 368.536 196.097 368.788 196.097C369.152 196.097 369.523 196.211 369.899 196.438L369.527 197.422C369.262 197.269 368.999 197.192 368.734 197.192C368.498 197.192 368.285 197.262 368.098 197.401C367.909 197.54 367.776 197.735 367.696 197.982C367.575 198.359 367.514 198.771 367.514 199.219V202.493H366.435Z" fill="#3069B1"/>
<path d="M370.555 196.218H371.635V202.472H370.555V196.218ZM370.555 193.839H371.635V195.058H370.555V193.839Z" fill="#3069B1"/>
<path d="M373.282 202.493V196.238H374.248V197.116C374.448 196.81 374.715 196.563 375.048 196.377C375.38 196.191 375.758 196.097 376.182 196.097C376.654 196.097 377.041 196.194 377.344 196.386C377.647 196.578 377.859 196.847 377.984 197.192C378.488 196.462 379.145 196.097 379.954 196.097C380.586 196.097 381.072 196.269 381.413 196.612C381.753 196.956 381.923 197.485 381.923 198.2V202.493H380.848V198.553C380.848 198.129 380.813 197.823 380.743 197.637C380.672 197.451 380.546 197.301 380.361 197.186C380.177 197.072 379.961 197.016 379.714 197.016C379.265 197.016 378.893 197.162 378.596 197.455C378.301 197.747 378.151 198.215 378.151 198.859V202.493H377.071V198.429C377.071 197.958 376.983 197.605 376.806 197.369C376.631 197.134 376.342 197.016 375.942 197.016C375.638 197.016 375.356 197.094 375.098 197.251C374.84 197.409 374.653 197.638 374.537 197.94C374.421 198.243 374.362 198.679 374.362 199.248V202.493H373.282Z" fill="#3069B1"/>
<path d="M384.335 198.764H387.894C387.847 198.239 387.711 197.844 387.487 197.581C387.142 197.173 386.696 196.968 386.148 196.968C385.651 196.968 385.234 197.132 384.895 197.458C384.558 197.783 384.37 198.219 384.335 198.764ZM387.884 200.478L388.999 200.614C388.824 201.254 388.498 201.751 388.021 202.104C387.544 202.458 386.937 202.634 386.195 202.634C385.263 202.634 384.523 202.352 383.977 201.789C383.43 201.225 383.157 200.435 383.157 199.418C383.157 198.366 383.433 197.549 383.986 196.968C384.538 196.387 385.254 196.097 386.136 196.097C386.988 196.097 387.686 196.382 388.225 196.95C388.766 197.52 389.035 198.321 389.035 199.353C389.035 199.416 389.033 199.51 389.03 199.636H384.274C384.314 200.324 384.513 200.85 384.869 201.214C385.225 201.58 385.669 201.762 386.201 201.762C386.598 201.762 386.937 201.66 387.216 201.456C387.496 201.252 387.719 200.926 387.884 200.478Z" fill="#3069B1"/>
<path d="M500 405.746C500 406.229 388.066 406.643 250.011 406.643C111.956 406.643 0 406.229 0 405.746C0 405.263 111.911 404.814 250.011 404.814C388.111 404.814 500 405.228 500 405.746Z" fill="#263238"/>
<path d="M123.742 400.101L120.023 404.796C120.023 404.796 108.856 409.159 106.758 411.102C104.66 413.044 100.443 421.292 100.443 421.292L102.229 423.723C102.229 423.723 109.667 424.2 114.196 424.045C118.725 423.889 124.386 422.102 125.685 421.292C126.983 420.482 131.18 414.498 131.99 413.532C132.8 412.566 134.576 413.044 136.841 411.912C139.105 410.78 138.783 401.877 138.783 401.877L123.742 400.101Z" fill="#263238" stroke="#263238" stroke-width="1.03897" stroke-miterlimit="10" stroke-linecap="round"/>
<path d="M131.154 401.064C131.154 401.064 131.154 401.366 131.3 401.791C131.549 402.893 132.079 404.908 132.775 405.115C133.741 405.437 138.758 401.875 138.758 401.875" fill="white"/>
<path d="M131.154 401.064C131.154 401.064 131.154 401.366 131.3 401.791C131.549 402.893 132.079 404.908 132.775 405.115C133.741 405.437 138.758 401.875 138.758 401.875" stroke="#263238" stroke-width="1.03897" stroke-miterlimit="10" stroke-linecap="round"/>
<path d="M265.649 400.101L269.378 404.796C269.378 404.796 280.534 409.159 282.643 411.102C284.752 413.044 288.948 421.292 288.948 421.292L287.172 423.723C287.172 423.723 279.724 424.2 275.195 424.045C270.666 423.889 265.005 422.102 263.717 421.333C262.429 420.565 258.211 414.54 257.401 413.574C256.591 412.608 254.814 413.086 252.55 411.953C250.285 410.821 250.607 401.919 250.607 401.919L265.649 400.101Z" fill="#263238" stroke="#263238" stroke-width="1.03897" stroke-miterlimit="10" stroke-linecap="round"/>
<path d="M258.195 401.064C258.195 401.064 258.195 401.366 258.05 401.791C257.811 402.893 257.271 404.908 256.575 405.115C255.609 405.437 250.592 401.875 250.592 401.875" fill="white"/>
<path d="M258.195 401.064C258.195 401.064 258.195 401.366 258.05 401.791C257.811 402.893 257.271 404.908 256.575 405.115C255.609 405.437 250.592 401.875 250.592 401.875" stroke="#263238" stroke-width="1.03897" stroke-miterlimit="10" stroke-linecap="round"/>
<path d="M266.282 401.701L232.128 253.977L225.386 215.491L194.639 215.896L163.891 215.491L157.16 253.977L122.995 401.701L138.867 403.145L194.639 268.531L250.41 403.145L266.282 401.701Z" fill="#003C86" stroke="#263238" stroke-width="1.03897" stroke-miterlimit="10" stroke-linecap="round"/>
<path d="M186.226 254.77L187.867 257.263" stroke="white" stroke-width="1.03897" stroke-miterlimit="10" stroke-linecap="round"/>
<path d="M132.362 389.208L130.585 394.911" stroke="white" stroke-width="1.03897" stroke-miterlimit="10" stroke-linecap="round"/>
<path d="M171.716 263.057L134.892 381.248" stroke="white" stroke-width="1.03897" stroke-miterlimit="10" stroke-linecap="round"/>
<path d="M235.064 307.917L257.076 384.557" stroke="white" stroke-width="1.03897" stroke-miterlimit="10" stroke-linecap="round"/>
<path d="M220.675 257.759L234.086 304.483" stroke="white" stroke-width="1.03897" stroke-miterlimit="10" stroke-linecap="round"/>
<path d="M171.949 233.183L183.458 250.572" stroke="white" stroke-width="1.03897" stroke-miterlimit="10" stroke-linecap="round"/>
<path d="M210.825 242.461C210.348 243.142 209.964 243.882 209.682 244.663" stroke="white" stroke-width="1.03897" stroke-miterlimit="10" stroke-linecap="round"/>
<path d="M220.428 227.999C220.428 227.999 216.127 234.231 212.97 239.082" stroke="white" stroke-width="1.03897" stroke-miterlimit="10" stroke-linecap="round"/>
<path d="M258.182 388.217L259.159 391.593" stroke="#858585" stroke-width="1.03897" stroke-miterlimit="10" stroke-linecap="round"/>
<path fill-rule="evenodd" clip-rule="evenodd" d="M106.083 2.12354C105.776 1.36208 104.908 0.99337 104.147 1.30083L102.619 1.91727C101.858 2.22457 101.489 3.09229 101.796 3.85358L104.586 10.7658C104.894 11.5271 105.761 11.8958 106.523 11.5885L108.05 10.9719C108.811 10.6646 109.18 9.79703 108.873 9.03557L106.083 2.12354Z" fill="#F8B896" stroke="#263238" stroke-width="1.03897" stroke-miterlimit="10" stroke-linecap="round"/>
<path fill-rule="evenodd" clip-rule="evenodd" d="M101.892 4.942C101.585 4.1807 100.717 3.81199 99.9555 4.11928L98.428 4.73572C97.6666 5.04319 97.298 5.91074 97.6053 6.6722L100.395 13.5842C100.702 14.3457 101.57 14.7142 102.331 14.4069L103.859 13.7905C104.62 13.4832 104.989 12.6155 104.682 11.8542L101.892 4.942Z" fill="#F8B896" stroke="#263238" stroke-width="1.03897" stroke-miterlimit="10" stroke-linecap="round"/>
<path fill-rule="evenodd" clip-rule="evenodd" d="M98.1545 8.28497C97.8472 7.52351 96.9795 7.15497 96.2182 7.46226L94.6907 8.0787C93.9294 8.38599 93.5607 9.25372 93.868 10.015L96.6578 16.9272C96.9651 17.6887 97.8328 18.0572 98.5943 17.7499L100.122 17.1335C100.883 16.826 101.252 15.9585 100.944 15.197L98.1545 8.28497Z" fill="#F8B896" stroke="#263238" stroke-width="1.03897" stroke-miterlimit="10" stroke-linecap="round"/>
<path fill-rule="evenodd" clip-rule="evenodd" d="M94.8667 11.7272C94.5594 10.9657 93.6919 10.597 92.9304 10.9042L91.4029 11.5204C90.6415 11.8276 90.2726 12.6953 90.5799 13.4566L92.7739 18.8954C93.081 19.6567 93.9487 20.0256 94.71 19.7185L96.2377 19.1022C96.9992 18.7949 97.3679 17.9274 97.0608 17.1659L94.8667 11.7272Z" fill="#F8B896" stroke="#263238" stroke-width="1.03897" stroke-miterlimit="10" stroke-linecap="round"/>
<path d="M282.293 7.73645L273.547 28.1483L219.977 116.34L212 121.44L194.87 122.084L177.72 121.44L169.711 116.34L116.121 28.1483L107.375 7.73645L93.871 19.4018C93.871 19.4018 100.104 29.6025 101.516 30.34C102.929 31.0776 108.788 33.2486 108.788 33.2486L132.108 108.32L159.802 171.685L163.645 201.373C163.645 201.373 159.677 212.976 161.661 215.916C164.382 219.988 174.188 221.733 178.499 223.187C188.318 226.533 198.931 226.779 208.894 223.894C214.628 222.294 224.319 221.349 227.924 215.957C229.908 212.976 225.929 201.415 225.929 201.415L229.773 171.727L257.477 108.362L280.797 33.2902C280.797 33.2902 286.625 31.1087 288.069 30.3816C289.513 29.6545 295.724 19.4433 295.724 19.4433L282.293 7.73645Z" fill="#F8B896" stroke="#263238" stroke-width="1.03897" stroke-miterlimit="10" stroke-linecap="round"/>
<path fill-rule="evenodd" clip-rule="evenodd" d="M280.843 9.05031C280.536 9.8116 280.905 10.6793 281.666 10.9865L283.194 11.6027C283.955 11.9098 284.823 11.5411 285.13 10.7797L287.918 3.86697C288.226 3.10551 287.857 2.23795 287.095 1.93083L285.568 1.31456C284.806 1.00743 283.939 1.37615 283.632 2.13761L280.843 9.05031Z" fill="#F8B896" stroke="#263238" stroke-width="1.03897" stroke-miterlimit="10" stroke-linecap="round"/>
<path fill-rule="evenodd" clip-rule="evenodd" d="M284.923 11.8832C284.615 12.6446 284.984 13.5122 285.746 13.8195L287.273 14.4357C288.035 14.7429 288.902 14.374 289.209 13.6127L291.998 6.69998C292.305 5.93852 291.936 5.07096 291.175 4.76384L289.647 4.14756C288.886 3.84044 288.018 4.20916 287.711 4.97062L284.923 11.8832Z" fill="#F8B896" stroke="#263238" stroke-width="1.03897" stroke-miterlimit="10" stroke-linecap="round"/>
<path fill-rule="evenodd" clip-rule="evenodd" d="M288.776 15.2263C288.468 15.9877 288.837 16.8553 289.599 17.1624L291.126 17.7787C291.888 18.0858 292.755 17.7171 293.062 16.9556L295.851 10.0431C296.158 9.28162 295.79 8.41406 295.028 8.10677L293.501 7.4905C292.739 7.18337 291.872 7.55226 291.564 8.31372L288.776 15.2263Z" fill="#F8B896" stroke="#263238" stroke-width="1.03897" stroke-miterlimit="10" stroke-linecap="round"/>
<path fill-rule="evenodd" clip-rule="evenodd" d="M292.624 17.166C292.317 17.9273 292.686 18.7951 293.447 19.1022L294.975 19.7185C295.736 20.0256 296.604 19.6569 296.911 18.8954L299.105 13.4567C299.412 12.6953 299.044 11.8277 298.282 11.5204L296.755 10.9041C295.993 10.597 295.126 10.9659 294.818 11.7274L292.624 17.166Z" fill="#F8B896" stroke="#263238" stroke-width="1.03897" stroke-miterlimit="10" stroke-linecap="round"/>
<path d="M257.566 108.328L271.257 64.222L255.572 57.8232L220.025 116.347L212.047 121.448L194.918 122.092L177.768 121.448L169.759 116.347L139.157 65.9775L121.976 75.3265L132.218 108.297L159.911 171.662L163.755 201.35C163.755 201.35 159.787 212.953 161.771 215.893C164.056 219.31 171.826 220.827 175.42 222.052C186.681 225.917 196.05 227.869 207.622 224.265C212.733 222.665 224.835 220.681 228.034 215.893C230.018 212.911 226.04 201.35 226.04 201.35L229.883 171.662L257.566 108.328Z" fill="#FFDC81" stroke="#263238" stroke-width="1.03897" stroke-miterlimit="10" stroke-linecap="round"/>
<path d="M166.531 136.65L166.054 139.953" stroke="#263238" stroke-width="1.03897" stroke-miterlimit="10" stroke-linecap="round"/>
<path d="M169.057 119.695L167.073 133.282" stroke="#263238" stroke-width="1.03897" stroke-miterlimit="10" stroke-linecap="round"/>
<path d="M231.665 146.32L231.967 142.061" stroke="#263238" stroke-width="1.03897" stroke-miterlimit="10" stroke-linecap="round"/>
<path d="M229.854 171.747L231.329 150.857" stroke="#263238" stroke-width="1.03897" stroke-miterlimit="10" stroke-linecap="round"/>
<path d="M159.813 171.737L159.709 150.078" stroke="#263238" stroke-width="1.03897" stroke-miterlimit="10" stroke-linecap="round"/>
<path d="M173.678 122.542C173.678 122.542 170.707 144.18 172.816 157.268" stroke="#263238" stroke-width="1.03897" stroke-miterlimit="10" stroke-linecap="round"/>
<path d="M211.608 124.341C213.446 132.244 214.576 140.295 214.984 148.399" stroke="#263238" stroke-width="1.03897" stroke-miterlimit="10" stroke-linecap="round"/>
<path d="M246.623 108.32C246.72 109.593 246.89 110.859 247.132 112.112" stroke="#263238" stroke-width="1.03897" stroke-miterlimit="10" stroke-linecap="round"/>
<path d="M250.011 70.7413C250.011 70.7413 246.552 89.1273 246.396 102.818" stroke="#263238" stroke-width="1.03897" stroke-miterlimit="10" stroke-linecap="round"/>
<path d="M245.417 80.4583C245.417 80.4583 243.339 96.0398 243.339 102.823" stroke="#263238" stroke-width="1.03897" stroke-miterlimit="10" stroke-linecap="round"/>
<path d="M147.131 81.2941C147.131 81.2941 149.209 104.51 150.923 117.589" stroke="#263238" stroke-width="1.03897" stroke-miterlimit="10" stroke-linecap="round"/>
<path d="M153.932 126.452C153.932 128.301 153.932 130.139 153.818 131.936" stroke="#263238" stroke-width="1.03897" stroke-miterlimit="10" stroke-linecap="round"/>
<path d="M150.869 94.3823C152.519 103.874 153.529 113.466 153.892 123.094" stroke="#263238" stroke-width="1.03897" stroke-miterlimit="10" stroke-linecap="round"/>
<path d="M137.856 63.1056L120.592 72.5272C119.727 73.0134 119.298 74.0307 119.553 74.9891L121.693 83.0812C121.95 84.0282 122.817 84.6905 123.798 84.6905C124.15 84.6905 124.497 84.6052 124.809 84.4419L143.819 74.3451C144.861 73.7924 145.268 72.4827 144.722 71.4367L140.827 63.9886C140.448 63.2807 139.707 62.8374 138.904 62.8374C138.538 62.8374 138.177 62.9296 137.856 63.1056Z" fill="#FFC632" stroke="#263238" stroke-width="1.03897" stroke-miterlimit="10" stroke-linecap="round"/>
<path d="M255.642 52.936L273.914 60.3425C274.838 60.722 275.39 61.6909 275.243 62.6796L274.028 70.9899C273.873 72.0515 272.953 72.847 271.88 72.847C271.605 72.847 271.333 72.7949 271.078 72.6933L251.061 64.7989C249.96 64.3669 249.404 63.1101 249.825 62.0045L252.796 54.2034C253.109 53.3504 253.925 52.7802 254.834 52.7802C255.111 52.7802 255.385 52.8331 255.642 52.936Z" fill="#FFC632" stroke="#263238" stroke-width="1.03897" stroke-miterlimit="10" stroke-linecap="round"/>
<path d="M114.673 26.3326L111.381 9.85763C111.179 8.89971 110.277 8.24079 109.303 8.34114C106.82 8.66315 102.406 9.20328 100.868 9.20328C98.6869 9.20328 97.9494 13.5764 99.7776 13.5764C101.512 13.7231 103.224 14.0717 104.878 14.6152C106.532 15.1587 102.323 23.7252 108.16 27.0077" fill="#F8B896"/>
<path d="M114.673 26.3326L111.381 9.85763C111.179 8.89971 110.277 8.24079 109.303 8.34114C106.82 8.66315 102.406 9.20328 100.868 9.20328C98.6869 9.20328 97.9494 13.5764 99.7776 13.5764C101.512 13.7231 103.224 14.0717 104.878 14.6152C106.532 15.1587 102.323 23.7252 108.16 27.0077" stroke="#263238" stroke-width="1.03897" stroke-miterlimit="10" stroke-linecap="round"/>
<path d="M275.067 26.3335L278.359 9.85854C278.556 8.89792 279.462 8.2368 280.437 8.34205C282.93 8.66406 287.345 9.20419 288.882 9.20419C291.063 9.20419 291.791 13.5773 289.973 13.5773C288.238 13.7227 286.526 14.0713 284.872 14.6161C283.219 15.1608 287.417 23.7261 281.59 27.0086" fill="#F8B896"/>
<path d="M275.067 26.3335L278.359 9.85854C278.556 8.89792 279.462 8.2368 280.437 8.34205C282.93 8.66406 287.345 9.20419 288.882 9.20419C291.063 9.20419 291.791 13.5773 289.973 13.5773C288.238 13.7227 286.526 14.0713 284.872 14.6161C283.219 15.1608 287.417 23.7261 281.59 27.0086" stroke="#263238" stroke-width="1.03897" stroke-miterlimit="10" stroke-linecap="round"/>
<path d="M186.226 138.162L191.856 150.42L186.226 212.704L195.502 223.299L203.459 210.71L195.835 151.084L202.795 136.5L194.515 130.205L186.226 138.162Z" fill="#263238" stroke="#263238" stroke-width="1.03897" stroke-miterlimit="10" stroke-linecap="round"/>
<path d="M180.48 117.422C180.48 117.422 177.229 116.715 175.837 118.814C175.045 119.995 174.351 121.239 173.76 122.532L179.805 151.348L194.192 138.779L208.371 153.425C208.371 153.425 211.166 139.007 211.166 128.557C211.166 118.107 203.738 115.562 201.869 114.887C199.999 114.212 180.48 117.422 180.48 117.422Z" fill="#C08B00" stroke="#263238" stroke-width="1.03897" stroke-miterlimit="10" stroke-linecap="round"/>
<path d="M177.159 110.738L179.237 124.678C179.237 124.678 185.978 138.39 191.556 139.086C197.135 139.782 201.549 135.606 203.876 129.332L206.203 123.099L207.824 110.219L177.159 110.738Z" fill="#F8B896" stroke="#263238" stroke-width="1.03897" stroke-miterlimit="10" stroke-linecap="round"/>
<path d="M207.82 112.499C207.82 112.499 195.843 124.476 192.041 126.107C188.239 127.738 177.613 113.05 177.613 113.05L207.82 112.499Z" fill="#263238"/>
<path d="M173.776 99.3144C169.931 95.9464 167.669 91.1171 167.543 86.0079C167.325 77.3653 169.319 70.2705 170.213 71.3819C170.824 72.2539 171.275 73.2284 171.542 74.2594C171.81 75.2902 171.979 62.5109 176.861 59.1869C181.743 55.8627 181.068 63.8404 181.068 63.8404C181.068 63.8404 193.928 52.3102 202.799 53.858C211.67 55.4056 206.123 58.2934 206.123 58.2934C206.123 58.2934 218.983 63.1757 221.206 68.276C223.429 73.3764 212.117 77.3653 212.117 77.3653C212.117 77.3653 218.349 78.9131 217.435 80.4815C216.521 82.0501 213.903 82.6941 213.903 82.6941C213.903 82.6941 213.467 94.4426 212.137 95.554C210.808 96.6656 210.133 98.4418 208.367 94.8892C206.601 91.3367 203.723 82.8706 197.283 81.7696C190.843 80.6685 179.541 80.2115 177.993 84.2106C176.445 88.21 179.094 97.7147 177.1 99.7299C176.73 100.202 176.162 100.479 175.562 100.479C174.79 100.479 174.087 100.021 173.776 99.3144Z" fill="#263238" stroke="#263238" stroke-width="1.03897" stroke-miterlimit="10" stroke-linecap="round"/>
<path d="M196.645 71.946C196.645 71.946 187.369 70.3047 181.915 73.5767C176.462 76.849 174 83.4036 174 85.8655V96.5024C174 96.5024 167.996 92.1396 166.895 96.2324C165.793 100.325 167.175 106.329 169.356 106.88C170.806 107.141 172.3 106.762 173.449 105.841C174.599 104.92 174.54 112.385 179.453 114.577C184.367 116.769 191.087 120.051 193.819 119.771C196.551 119.49 207.323 112.655 208.362 111.554C209.401 110.453 210.554 104.459 210.554 104.459C210.554 104.459 212.922 106.745 214.169 105.966C217.638 103.795 218.189 99.5461 218.189 96.2738C218.189 93.0018 211.645 94.3626 211.645 94.3626C211.645 94.3626 208.913 78.7811 206.451 75.2596C203.989 71.7382 196.645 71.946 196.645 71.946Z" fill="#F8B896" stroke="#263238" stroke-width="1.03897" stroke-miterlimit="10" stroke-linecap="round"/>
<path d="M191.213 76.0358C191.213 76.0358 193.945 70.3019 196.667 71.9432C199.388 73.5844 197.768 80.1286 197.768 80.1286" stroke="#263238" stroke-width="1.03897" stroke-miterlimit="10" stroke-linecap="round"/>
<path d="M183.054 85.3167C183.054 85.3167 188.247 88.5887 192.33 88.5887C196.412 88.5887 201.336 85.8673 201.336 85.8673" stroke="#263238" stroke-width="1.03897" stroke-miterlimit="10" stroke-linecap="round"/>
<path d="M184.8 84.9482C184.8 84.9482 182.338 84.2211 181.465 86.2465" stroke="#263238" stroke-width="1.03897" stroke-miterlimit="10" stroke-linecap="round"/>
<path d="M199.484 85.0903C200.611 85.3354 201.599 86.0102 202.237 86.9706" stroke="#263238" stroke-width="1.03897" stroke-miterlimit="10" stroke-linecap="round"/>
<path d="M185.353 87.1092C185.353 87.1092 187.804 99.5745 192.873 99.9899C197.942 100.406 198.805 87.4001 198.805 87.4001C196.661 87.9974 194.467 88.3939 192.25 88.5843C190.266 88.5843 185.207 86.5068 185.207 86.5068L185.353 87.1092Z" fill="#263238" stroke="#263238" stroke-width="1.03897" stroke-miterlimit="10" stroke-linecap="round"/>
<path d="M185.207 86.5352L185.353 87.1169C185.353 87.1169 185.519 87.9584 185.851 89.1945C189.891 90.9636 194.47 91.0682 198.587 89.4854C198.753 88.2491 198.805 87.4078 198.805 87.4078C196.661 88.0051 194.467 88.4016 192.25 88.5919C190.266 88.5608 185.207 86.5352 185.207 86.5352Z" fill="white" stroke="#263238" stroke-width="1.03897" stroke-miterlimit="10" stroke-linecap="round"/>
<path d="M196.529 97.3208C194.039 97.6367 191.512 97.5244 189.06 96.9885C190.099 98.64 191.408 99.8658 192.935 100.001C194.462 100.136 195.667 98.9828 196.529 97.3208Z" fill="white" stroke="#263238" stroke-width="1.03897" stroke-miterlimit="10" stroke-linecap="round"/>
<path d="M181.012 78.8644C181.012 78.8644 183.463 75.8208 186.798 76.5479" stroke="#263238" stroke-width="1.03897" stroke-miterlimit="10" stroke-linecap="round"/>
<path d="M198.804 76.6939C200.785 76.3092 202.84 76.7813 204.455 77.9923" stroke="#263238" stroke-width="1.03897" stroke-miterlimit="10" stroke-linecap="round"/>
<path d="M186.297 73.22C186.297 73.22 181.954 73.5109 180.22 76.409" stroke="#263238" stroke-width="2.07794" stroke-miterlimit="10" stroke-linecap="round"/>
<path d="M199.823 73.0643C199.823 73.0643 203.978 73.2099 206.056 76.5442" stroke="#263238" stroke-width="2.07794" stroke-miterlimit="10" stroke-linecap="round"/>
</svg>
