<?xml version="1.0" encoding="UTF-8"?> <!-- Creator: CorelDRAW X8 --> <svg xmlns="http://www.w3.org/2000/svg" xmlns:xlink="http://www.w3.org/1999/xlink" xml:space="preserve" width="100.176mm" height="11.722mm" style="shape-rendering:geometricPrecision; text-rendering:geometricPrecision; image-rendering:optimizeQuality; fill-rule:evenodd; clip-rule:evenodd" viewBox="0 0 4179 489"> <defs> <style type="text/css"> <![CDATA[ .fil2 {fill:#2A67B1;fill-rule:nonzero} .fil0 {fill:#3069B1;fill-rule:nonzero} .fil1 {fill:#E9F6FF;fill-rule:nonzero} .fil3 {fill:#FEC530;fill-rule:nonzero} ]]> </style> </defs> <g id="Layer_x0020_1"> <metadata id="CorelCorpID_0Corel-Layer"></metadata> <polygon class="fil0" points="736,383 736,146 647,146 647,115 859,115 859,146 771,146 771,383 "></polygon> <path id="1" class="fil0" d="M977 359c-12,10 -24,17 -35,22 -11,4 -23,6 -36,6 -22,0 -38,-5 -50,-16 -11,-10 -17,-23 -17,-39 0,-10 2,-19 7,-26 4,-8 10,-14 17,-19 7,-5 15,-9 23,-11 7,-2 17,-3 30,-5 26,-3 46,-7 58,-11 1,-5 1,-8 1,-9 0,-13 -3,-23 -10,-28 -8,-7 -21,-11 -37,-11 -16,0 -27,3 -35,8 -7,5 -12,15 -16,29l-32 -5c3,-13 8,-25 14,-33 7,-8 17,-15 29,-20 13,-4 28,-6 45,-6 16,0 30,2 40,5 11,4 18,9 23,15 5,6 8,14 10,23 1,5 2,15 2,30l0 44c0,30 1,49 2,57 1,9 4,16 8,24l-34 0c-4,-7 -6,-15 -7,-24zm-2 -73c-12,4 -30,9 -54,12 -14,2 -23,4 -29,7 -6,2 -10,5 -13,10 -3,5 -5,10 -5,16 0,8 4,16 10,21 7,6 17,9 30,9 12,0 23,-3 33,-8 10,-6 18,-13 22,-23 4,-7 5,-18 5,-32l1 -12z"></path> <polygon id="2" class="fil0" points="1058,383 1058,115 1091,115 1091,383 "></polygon> <polygon id="3" class="fil0" points="1141,383 1141,115 1174,115 1174,383 "></polygon> <path id="4" class="fil0" d="M1223 458l-3 -31c7,2 13,3 18,3 8,0 14,-1 18,-4 4,-2 8,-5 11,-10 2,-3 5,-11 10,-24 1,-2 1,-5 3,-8l-74 -195 35 0 41 112c5,14 10,29 14,45 4,-15 8,-30 14,-44l41 -113 33 0 -74 197c-8,22 -14,36 -18,44 -6,11 -13,19 -20,24 -8,5 -17,7 -27,7 -7,0 -14,-1 -22,-3z"></path> <path id="5" class="fil0" d="M1416 383l0 -268 101 0c18,0 32,1 41,3 13,2 24,6 33,12 9,6 16,15 22,26 5,11 8,23 8,36 0,23 -8,42 -22,58 -15,16 -41,24 -79,24l-68 0 0 109 -36 0zm36 -141l69 0c23,0 39,-4 49,-13 9,-8 14,-20 14,-36 0,-11 -3,-20 -8,-28 -6,-8 -14,-14 -23,-16 -6,-2 -17,-3 -33,-3l-68 0 0 96z"></path> <path id="6" class="fil0" d="M1661 383l0 -194 30 0 0 29c7,-13 14,-22 21,-27 6,-4 13,-6 21,-6 11,0 22,3 34,10l-12 30c-8,-4 -16,-6 -24,-6 -7,0 -14,2 -19,6 -6,4 -10,10 -12,18 -4,12 -6,25 -6,38l0 102 -33 0z"></path> <path id="7" class="fil0" d="M1786 152l0 -37 33 0 0 37 -33 0zm0 231l0 -194 33 0 0 194 -33 0z"></path> <path id="8" class="fil0" d="M1869 383l0 -194 30 0 0 27c6,-9 14,-17 24,-23 10,-6 22,-8 35,-8 14,0 26,3 35,8 9,6 16,15 19,25 16,-22 36,-33 60,-33 20,0 35,5 45,16 10,10 16,27 16,49l0 133 -33 0 0 -122c0,-13 -1,-23 -3,-29 -3,-6 -6,-10 -12,-14 -6,-3 -12,-5 -20,-5 -14,0 -25,5 -34,14 -9,9 -14,23 -14,43l0 113 -32 0 0 -126c0,-15 -3,-26 -9,-33 -5,-7 -14,-11 -26,-11 -9,0 -18,2 -25,7 -8,5 -14,12 -18,22 -3,9 -5,23 -5,40l0 101 -33 0z"></path> <path id="9" class="fil0" d="M2313 320l35 5c-6,19 -16,35 -30,46 -15,11 -33,16 -56,16 -28,0 -50,-9 -67,-26 -17,-18 -25,-42 -25,-74 0,-32 9,-57 25,-75 17,-18 39,-27 66,-27 25,0 47,8 63,26 16,18 25,42 25,74 0,2 0,5 -1,9l-144 0c1,21 7,38 18,49 11,11 24,17 40,17 12,0 23,-3 31,-9 9,-7 15,-17 20,-31zm-107 -53l108 0c-2,-16 -6,-28 -13,-36 -10,-13 -24,-19 -40,-19 -15,0 -28,5 -38,15 -11,10 -16,23 -17,40z"></path> <path id="10" class="fil0" d="M2497 383l0 -268 93 0c20,0 36,1 47,4 16,3 29,10 40,19 14,12 24,27 31,46 7,18 11,40 11,64 0,20 -3,38 -7,54 -5,15 -11,28 -19,39 -7,10 -15,18 -24,24 -9,6 -20,10 -32,13 -13,3 -27,5 -43,5l-97 0zm36 -32l57 0c18,0 31,-1 41,-4 10,-4 18,-8 24,-14 9,-9 15,-20 20,-34 5,-15 7,-32 7,-52 0,-28 -5,-50 -14,-65 -9,-15 -20,-25 -33,-30 -10,-4 -25,-6 -46,-6l-56 0 0 205z"></path> <path id="11" class="fil0" d="M2896 320l34 5c-5,19 -15,35 -30,46 -14,11 -33,16 -55,16 -29,0 -51,-9 -68,-26 -16,-18 -25,-42 -25,-74 0,-32 9,-57 26,-75 16,-18 38,-27 65,-27 26,0 47,8 63,26 17,18 25,42 25,74 0,2 0,5 0,9l-145 0c1,21 7,38 18,49 11,11 25,17 41,17 12,0 22,-3 31,-9 8,-7 15,-17 20,-31zm-108 -53l108 0c-1,-16 -5,-28 -12,-36 -11,-13 -24,-19 -41,-19 -15,0 -28,5 -38,15 -10,10 -16,23 -17,40z"></path> <path id="12" class="fil0" d="M3025 383l-74 -194 35 0 42 116c5,13 9,26 13,39 2,-10 6,-22 12,-37l43 -118 34 0 -74 194 -31 0z"></path> <path id="13" class="fil0" d="M3291 320l34 5c-5,19 -15,35 -30,46 -14,11 -33,16 -55,16 -28,0 -51,-9 -67,-26 -17,-18 -25,-42 -25,-74 0,-32 8,-57 25,-75 17,-18 38,-27 65,-27 26,0 47,8 64,26 16,18 24,42 24,74 0,2 0,5 0,9l-145 0c2,21 8,38 18,49 11,11 25,17 41,17 12,0 22,-3 31,-9 8,-7 15,-17 20,-31zm-108 -53l108 0c-1,-16 -5,-28 -12,-36 -10,-13 -24,-19 -41,-19 -15,0 -27,5 -38,15 -10,10 -16,23 -17,40z"></path> <polygon id="14" class="fil0" points="3366,383 3366,115 3399,115 3399,383 "></polygon> <path id="15" class="fil0" d="M3437 286c0,-36 10,-63 30,-80 17,-14 38,-21 62,-21 26,0 48,8 65,26 17,17 25,41 25,72 0,25 -3,45 -11,59 -7,14 -18,25 -33,33 -14,8 -30,12 -46,12 -28,0 -50,-9 -66,-26 -17,-17 -26,-43 -26,-75zm34 0c0,25 6,43 16,56 11,12 25,18 42,18 16,0 29,-6 40,-19 11,-12 17,-31 17,-56 0,-24 -6,-42 -17,-55 -11,-12 -24,-18 -40,-18 -17,0 -31,6 -42,18 -10,13 -16,31 -16,56z"></path> <path id="16" class="fil0" d="M3658 457l0 -268 30 0 0 25c7,-10 15,-17 24,-22 9,-5 19,-7 32,-7 17,0 31,4 44,12 13,9 22,21 29,36 6,16 9,33 9,51 0,20 -3,38 -10,54 -7,16 -18,28 -31,36 -14,9 -28,13 -43,13 -11,0 -21,-2 -30,-7 -8,-5 -15,-10 -21,-17l0 94 -33 0zm30 -170c0,25 5,43 15,55 10,12 22,18 37,18 14,0 27,-6 37,-18 11,-13 16,-32 16,-58 0,-24 -5,-43 -16,-55 -10,-12 -22,-19 -36,-19 -14,0 -26,7 -37,20 -11,13 -16,32 -16,57z"></path> <path id="17" class="fil0" d="M3999 320l34 5c-6,19 -16,35 -30,46 -15,11 -33,16 -56,16 -28,0 -50,-9 -67,-26 -16,-18 -25,-42 -25,-74 0,-32 9,-57 25,-75 17,-18 39,-27 66,-27 26,0 47,8 63,26 17,18 25,42 25,74 0,2 0,5 0,9l-145 0c1,21 7,38 18,49 11,11 24,17 40,17 13,0 23,-3 31,-9 9,-7 16,-17 21,-31zm-108 -53l108 0c-1,-16 -6,-28 -12,-36 -11,-13 -24,-19 -41,-19 -15,0 -28,5 -38,15 -10,10 -16,23 -17,40z"></path> <path id="18" class="fil0" d="M4074 383l0 -194 29 0 0 29c8,-13 15,-22 21,-27 7,-4 14,-6 22,-6 11,0 22,3 33,10l-11 30c-8,-4 -16,-6 -24,-6 -7,0 -14,2 -20,6 -5,4 -9,10 -12,18 -3,12 -5,25 -5,38l0 102 -33 0z"></path> <g id="_2086916524016"> <polygon class="fil1" points="489,0 0,0 0,489 489,489 "></polygon> <path class="fil2" d="M71 424l0 -359 92 0 0 -65 -163 0 0 489 163 0 0 -65 -92 0zm347 0l0 -359 -92 0 0 -65 163 0 0 489 -163 0 0 -65 92 0z"></path> <polygon class="fil2" points="277,130 277,196 212,196 212,130 "></polygon> <polygon class="fil2" points="277,293 277,359 212,359 212,293 "></polygon> <polygon class="fil2" points="489,0 0,0 0,489 489,489 "></polygon> <path class="fil3" d="M112 381l0 -273 74 0 0 -49 -122 0 0 371 122 0 0 -49 -74 0zm265 0l0 -273 -74 0 0 -49 122 0 0 371 -122 0 0 -49 74 0z"></path> <path class="fil3" d="M274 137l0 59 -59 0 0 -59 59 0zm0 156l0 59 -59 0 0 -59 59 0z"></path> </g> </g> </svg> 