<svg width="356" height="62" viewBox="0 0 356 62" fill="none" xmlns="http://www.w3.org/2000/svg">
<path d="M61.4261 0.547119H0V31.268H61.4261V0.547119Z" fill="#2A67B1"/>
<path d="M30.7157 31.2939H0V62.0096H30.7157V31.2939Z" fill="#FFC635"/>
<path d="M61.4261 31.2939H30.7156V62.0096H61.4261V31.2939Z" fill="#76C5E6"/>
<path d="M88.623 49.4639V19.9788H77.6113V16.0359H104.107V19.9788H93.0476V49.4639H88.623Z" fill="#2A67B1"/>
<path d="M118.747 46.4738C117.228 47.7672 115.762 48.6783 114.359 49.2124C112.95 49.7465 111.442 50.0083 109.835 50.0083C107.175 50.0083 105.128 49.359 103.703 48.0604C102.274 46.7618 101.562 45.1019 101.562 43.0755C101.562 41.8921 101.834 40.8082 102.373 39.8238C102.913 38.8447 103.62 38.0592 104.494 37.4623C105.368 36.8706 106.353 36.4203 107.447 36.1166C108.254 35.9019 109.468 35.6977 111.097 35.4987C114.411 35.106 116.851 34.6347 118.417 34.0849C118.433 33.5247 118.438 33.1634 118.438 33.0115C118.438 31.3412 118.051 30.163 117.276 29.4771C116.228 28.5503 114.668 28.0842 112.6 28.0842C110.667 28.0842 109.243 28.4194 108.322 29.1001C107.4 29.7755 106.719 30.9746 106.28 32.6921L102.269 32.1475C102.635 30.4301 103.232 29.0425 104.07 27.9847C104.908 26.927 106.112 26.1154 107.693 25.5447C109.275 24.9739 111.107 24.6912 113.191 24.6912C115.275 24.6912 116.94 24.932 118.229 25.419C119.522 25.906 120.47 26.5186 121.077 27.2569C121.684 27.9952 122.109 28.9273 122.355 30.0478C122.491 30.7495 122.559 32.0062 122.559 33.8336V39.3054C122.559 43.1227 122.648 45.5365 122.821 46.5471C122.994 47.5577 123.339 48.5264 123.858 49.4532H119.569C119.145 48.5997 118.867 47.6049 118.747 46.4686V46.4738ZM118.401 37.3105C116.909 37.9179 114.678 38.4362 111.699 38.8604C110.013 39.1065 108.819 39.3788 108.117 39.6825C107.416 39.9862 106.876 40.4312 106.499 41.0177C106.117 41.6041 105.929 42.2534 105.929 42.9656C105.929 44.0599 106.342 44.971 107.17 45.7041C107.997 46.4319 109.212 46.7985 110.809 46.7985C112.406 46.7985 113.794 46.4529 115.029 45.7617C116.26 45.0705 117.166 44.1228 117.742 42.9237C118.181 41.9969 118.401 40.6302 118.401 38.8185V37.3157V37.3105Z" fill="#2A67B1"/>
<path d="M128.821 49.4639V16.0359H132.927V49.4639H128.821Z" fill="#2A67B1"/>
<path d="M139.2 49.4639V16.0359H143.305V49.4639H139.2Z" fill="#2A67B1"/>
<path d="M149.484 58.7896L149.028 54.9357C149.923 55.1818 150.709 55.3022 151.379 55.3022C152.29 55.3022 153.018 55.1504 153.568 54.8467C154.112 54.543 154.563 54.1188 154.913 53.569C155.17 53.1606 155.589 52.1396 156.17 50.5163C156.243 50.2859 156.369 49.9561 156.537 49.511L147.347 25.2516H151.772L156.809 39.2742C157.464 41.0545 158.05 42.9238 158.563 44.8822C159.034 42.9971 159.595 41.1592 160.249 39.3632L165.428 25.2463H169.533L160.323 49.8723C159.333 52.5323 158.568 54.365 158.019 55.3651C157.291 56.716 156.453 57.7109 155.51 58.3392C154.568 58.9676 153.442 59.287 152.138 59.287C151.348 59.287 150.468 59.1194 149.494 58.7843L149.484 58.7896Z" fill="#2A67B1"/>
<path d="M173.539 49.4639V16.0359H186.148C188.368 16.0359 190.064 16.1406 191.232 16.3553C192.871 16.6276 194.248 17.1512 195.358 17.9157C196.468 18.6854 197.364 19.7588 198.039 21.1412C198.714 22.5236 199.055 24.0473 199.055 25.7019C199.055 28.5452 198.149 30.9486 196.342 32.9175C194.531 34.8863 191.263 35.8707 186.535 35.8707H177.963V49.4587H173.539V49.4639ZM177.963 31.9278H186.608C189.467 31.9278 191.494 31.3937 192.698 30.3308C193.897 29.2678 194.499 27.7703 194.499 25.8381C194.499 24.44 194.149 23.2409 193.436 22.2461C192.729 21.2512 191.797 20.5914 190.645 20.272C189.902 20.073 188.525 19.9735 186.519 19.9735H177.969V31.9226L177.963 31.9278Z" fill="#2A67B1"/>
<path d="M204.118 49.4636V25.2461H207.81V28.9167C208.752 27.1992 209.622 26.0682 210.423 25.5184C211.219 24.9686 212.098 24.6963 213.056 24.6963C214.439 24.6963 215.847 25.1361 217.277 26.0211L215.863 29.8278C214.858 29.2361 213.858 28.9376 212.852 28.9376C211.957 28.9376 211.151 29.2099 210.433 29.7492C209.721 30.2886 209.208 31.0374 208.904 31.9956C208.449 33.4565 208.218 35.0535 208.218 36.7815V49.4584H204.113L204.118 49.4636Z" fill="#2A67B1"/>
<path d="M219.733 20.7537V16.0359H223.838V20.7537H219.733ZM219.733 49.4639V25.2464H223.838V49.4639H219.733Z" fill="#2A67B1"/>
<path d="M230.085 49.4636V25.2461H233.755V28.6444C234.515 27.461 235.525 26.5028 236.787 25.7802C238.049 25.0576 239.484 24.6963 241.096 24.6963C242.887 24.6963 244.359 25.0681 245.511 25.8116C246.657 26.5551 247.469 27.5972 247.94 28.9376C249.857 26.1101 252.349 24.6963 255.417 24.6963C257.821 24.6963 259.664 25.3613 260.957 26.6913C262.251 28.0213 262.895 30.0686 262.895 32.8386V49.4636H258.816V34.2105C258.816 32.5663 258.685 31.3882 258.418 30.6656C258.151 29.943 257.669 29.3618 256.967 28.9219C256.266 28.4821 255.449 28.2622 254.506 28.2622C252.805 28.2622 251.391 28.8277 250.265 29.9587C249.139 31.0897 248.579 32.9067 248.579 35.3991V49.4688H244.474V33.734C244.474 31.9118 244.139 30.5399 243.468 29.6288C242.798 28.7177 241.704 28.2622 240.185 28.2622C239.028 28.2622 237.96 28.5658 236.981 29.1732C236.002 29.7807 235.289 30.6708 234.85 31.8437C234.41 33.0114 234.19 34.7027 234.19 36.9072V49.4688H230.085V49.4636Z" fill="#2A67B1"/>
<path d="M285.562 41.6616L289.804 42.1853C289.134 44.662 287.898 46.5837 286.086 47.9556C284.28 49.3222 281.965 50.0082 279.153 50.0082C275.614 50.0082 272.802 48.919 270.728 46.7355C268.655 44.552 267.613 41.4941 267.613 37.5564C267.613 33.6188 268.66 30.32 270.76 28.0684C272.859 25.8168 275.577 24.6963 278.923 24.6963C282.269 24.6963 284.808 25.8011 286.861 28.0003C288.914 30.2048 289.94 33.3046 289.94 37.3051C289.94 37.5512 289.929 37.9125 289.919 38.3995H271.859C272.011 41.0595 272.765 43.0964 274.116 44.5101C275.467 45.9239 277.158 46.6308 279.179 46.6308C280.682 46.6308 281.97 46.2381 283.033 45.4474C284.096 44.6568 284.939 43.3948 285.562 41.6616ZM272.09 35.0273H285.61C285.426 32.9904 284.908 31.4615 284.06 30.4456C282.751 28.8643 281.059 28.0736 278.975 28.0736C277.09 28.0736 275.504 28.702 274.221 29.9639C272.938 31.2259 272.226 32.9119 272.09 35.0273Z" fill="#2A67B1"/>
<path d="M306.575 40.0123L310.859 39.651C311.178 41.735 311.911 43.3007 313.068 44.3532C314.225 45.4056 315.618 45.9293 317.247 45.9293C319.21 45.9293 320.87 45.191 322.232 43.7091C323.593 42.2273 324.274 40.2637 324.274 37.8184C324.274 35.373 323.619 33.6556 322.315 32.3099C321.012 30.9642 319.299 30.2939 317.184 30.2939C315.87 30.2939 314.686 30.5924 313.623 31.1893C312.56 31.7862 311.733 32.5612 311.131 33.5089L307.303 33.0115L310.523 15.9519H327.044V19.8477H313.786L311.995 28.7754C313.99 27.3878 316.079 26.6914 318.273 26.6914C321.174 26.6914 323.619 27.6968 325.614 29.7075C327.609 31.7182 328.604 34.2996 328.604 37.4571C328.604 40.6145 327.73 43.0598 325.976 45.2538C323.844 47.9452 320.938 49.2857 317.252 49.2857C314.231 49.2857 311.764 48.4426 309.853 46.7461C307.942 45.0548 306.853 42.8085 306.581 40.0176L306.575 40.0123Z" fill="#2867B1"/>
<path d="M332.348 48.71V44.0654H336.993V48.71H332.348Z" fill="#2867B1"/>
<path d="M356 48.7098H351.921V22.7225C350.937 23.6598 349.648 24.5971 348.057 25.5343C346.465 26.4716 345.03 27.1733 343.763 27.6393V23.6964C346.046 22.623 348.036 21.3244 349.743 19.8007C351.45 18.2769 352.659 16.7951 353.366 15.3604H355.995V48.7151L356 48.7098Z" fill="#2867B1"/>
</svg>
