<?xml version="1.0" encoding="UTF-8"?> <!-- Creator: CorelDRAW X8 --> <svg xmlns="http://www.w3.org/2000/svg" xmlns:xlink="http://www.w3.org/1999/xlink" xml:space="preserve" width="85.9628mm" height="11.697mm" style="shape-rendering:geometricPrecision; text-rendering:geometricPrecision; image-rendering:optimizeQuality; fill-rule:evenodd; clip-rule:evenodd" viewBox="0 0 13330 1814"> <defs> <style type="text/css"> <![CDATA[ .fil1 {fill:#2A67B1;fill-rule:nonzero} .fil0 {fill:#3069B1;fill-rule:nonzero} .fil3 {fill:#56A0D7;fill-rule:nonzero} .fil2 {fill:#FEC530;fill-rule:nonzero} ]]> </style> </defs> <g id="Layer_x0020_1"> <metadata id="CorelCorpID_0Corel-Layer"></metadata> <polygon class="fil0" points="2773,1424 2773,545 2445,545 2445,428 3233,428 3233,545 2905,545 2905,1424 "></polygon> <path id="1" class="fil0" d="M3671 1333c-45,39 -89,66 -131,82 -42,16 -87,24 -135,24 -79,0 -140,-19 -183,-58 -42,-38 -64,-88 -64,-148 0,-35 8,-67 24,-96 17,-30 38,-53 64,-70 26,-18 55,-31 88,-40 24,-7 60,-13 109,-19 98,-11 171,-26 218,-42 0,-16 1,-27 1,-32 0,-49 -12,-84 -35,-105 -31,-27 -78,-41 -140,-41 -57,0 -100,10 -127,31 -28,20 -48,55 -61,107l-120 -17c11,-51 29,-93 54,-124 25,-32 61,-56 108,-73 47,-17 102,-25 164,-25 62,0 112,7 151,21 39,15 67,33 85,55 18,22 31,50 38,84 4,20 6,58 6,112l0 162c0,114 3,185 8,216 5,30 15,59 30,87l-128 0c-12,-26 -20,-56 -24,-91zm-9 -271c-45,18 -112,34 -201,46 -50,7 -86,15 -107,24 -21,10 -37,23 -48,40 -11,17 -17,36 -17,58 0,32 12,59 37,81 25,21 61,32 109,32 47,0 89,-10 125,-31 37,-20 64,-48 81,-84 14,-27 20,-68 20,-121l1 -45z"></path> <polygon id="2" class="fil0" points="3971,1424 3971,428 4093,428 4093,1424 "></polygon> <polygon id="3" class="fil0" points="4280,1424 4280,428 4402,428 4402,1424 "></polygon> <path id="4" class="fil0" d="M4586 1701l-14 -113c27,7 50,11 70,11 27,0 49,-5 65,-14 17,-9 30,-21 41,-38 7,-12 20,-42 37,-91 2,-7 6,-17 11,-30l-274 -724 131 0 150 417c20,52 37,108 53,166 14,-54 31,-109 50,-162l154 -421 122 0 -272 734c-30,79 -53,134 -69,164 -22,40 -47,69 -75,88 -28,19 -62,28 -101,28 -24,0 -50,-5 -79,-15z"></path> <path id="5" class="fil0" d="M5302 1424l0 -996 376 0c66,0 117,3 152,9 49,9 90,24 123,47 33,23 60,55 80,96 20,41 30,86 30,135 0,85 -27,156 -81,215 -54,59 -151,88 -292,88l-256 0 0 406 -132 0zm132 -523l258 0c85,0 145,-16 181,-48 36,-31 54,-76 54,-134 0,-41 -11,-77 -32,-106 -21,-30 -49,-50 -83,-59 -22,-6 -63,-9 -123,-9l-255 0 0 356z"></path> <path id="6" class="fil0" d="M6213 1424l0 -722 110 0 0 111c28,-52 54,-86 78,-102 24,-16 50,-24 79,-24 41,0 83,13 125,38l-43 113c-30,-16 -59,-25 -89,-25 -27,0 -51,8 -72,24 -21,16 -36,39 -45,67 -14,43 -20,91 -20,143l0 377 -123 0z"></path> <path id="7" class="fil0" d="M6678 567l0 -139 122 0 0 139 -122 0zm0 857l0 -722 122 0 0 722 -122 0z"></path> <path id="8" class="fil0" d="M6987 1424l0 -722 110 0 0 102c22,-35 52,-64 90,-85 37,-22 80,-32 128,-32 53,0 97,11 131,33 34,22 58,53 72,93 58,-84 132,-126 224,-126 72,0 127,19 166,59 38,40 58,101 58,183l0 495 -122 0 0 -455c0,-48 -5,-83 -12,-105 -8,-22 -23,-39 -44,-52 -21,-13 -45,-20 -73,-20 -51,0 -94,17 -127,51 -34,34 -50,88 -50,162l0 419 -123 0 0 -469c0,-54 -10,-95 -30,-122 -20,-27 -52,-41 -98,-41 -34,0 -66,9 -95,28 -29,18 -50,44 -63,79 -13,35 -20,85 -20,151l0 374 -122 0z"></path> <path id="9" class="fil0" d="M8638 1190l126 17c-19,73 -56,131 -110,171 -54,41 -122,61 -206,61 -105,0 -189,-32 -250,-97 -62,-65 -93,-156 -93,-273 0,-121 31,-215 93,-282 63,-67 144,-100 243,-100 96,0 175,32 236,98 61,66 91,158 91,277 0,7 0,18 0,32l-538 0c5,79 27,140 67,182 41,42 91,63 151,63 45,0 83,-12 114,-35 32,-24 57,-62 76,-114zm-401 -196l402 0c-5,-61 -21,-106 -46,-136 -39,-48 -89,-71 -151,-71 -56,0 -103,19 -142,56 -38,38 -59,88 -63,151z"></path> <path id="10" class="fil0" d="M9278 1104l123 -11c6,50 20,91 41,123 22,32 55,58 100,78 46,20 97,30 153,30 51,0 95,-8 133,-23 39,-15 67,-35 86,-62 19,-26 28,-54 28,-85 0,-31 -9,-58 -27,-82 -18,-23 -48,-42 -89,-58 -27,-10 -86,-27 -178,-49 -91,-22 -155,-42 -192,-62 -47,-25 -83,-56 -106,-93 -23,-37 -35,-78 -35,-124 0,-50 14,-97 43,-141 28,-44 70,-77 125,-100 55,-22 116,-34 183,-34 73,0 138,12 195,36 56,24 99,59 130,105 30,46 46,99 49,157l-127 10c-7,-63 -30,-111 -69,-143 -39,-32 -97,-48 -173,-48 -80,0 -138,15 -175,44 -36,29 -54,64 -54,106 0,35 13,65 38,88 26,23 92,47 199,71 107,24 181,45 220,63 58,27 101,61 129,102 27,41 41,88 41,141 0,53 -15,103 -46,149 -30,47 -73,84 -130,110 -57,26 -121,39 -192,39 -90,0 -165,-14 -226,-40 -61,-26 -108,-65 -143,-118 -35,-53 -53,-113 -54,-179z"></path> <path id="11" class="fil0" d="M10725 1190l127 17c-20,73 -57,131 -110,171 -54,41 -123,61 -206,61 -106,0 -189,-32 -251,-97 -61,-65 -92,-156 -92,-273 0,-121 31,-215 93,-282 62,-67 143,-100 243,-100 96,0 175,32 236,98 61,66 91,158 91,277 0,7 0,18 -1,32l-537 0c5,79 27,140 67,182 40,42 91,63 151,63 44,0 83,-12 114,-35 32,-24 57,-62 75,-114zm-400 -196l402 0c-6,-61 -21,-106 -46,-136 -39,-48 -90,-71 -151,-71 -57,0 -104,19 -142,56 -38,38 -59,88 -63,151z"></path> <path id="12" class="fil0" d="M11005 1424l0 -722 110 0 0 111c28,-52 54,-86 78,-102 24,-16 50,-24 79,-24 41,0 83,13 125,38l-43 113c-30,-16 -60,-25 -89,-25 -27,0 -51,8 -72,24 -21,16 -36,39 -45,67 -14,43 -20,91 -20,143l0 377 -123 0z"></path> <path id="13" class="fil0" d="M11667 1424l-272 -722 131 0 154 432c17,47 32,95 46,146 11,-38 26,-84 46,-138l160 -440 126 0 -273 722 -118 0z"></path> <path id="14" class="fil0" d="M12658 1190l126 17c-20,73 -56,131 -110,171 -54,41 -123,61 -206,61 -106,0 -189,-32 -251,-97 -61,-65 -92,-156 -92,-273 0,-121 31,-215 93,-282 63,-67 144,-100 243,-100 96,0 175,32 236,98 61,66 91,158 91,277 0,7 0,18 0,32l-538 0c5,79 27,140 67,182 40,42 91,63 151,63 44,0 83,-12 114,-35 32,-24 57,-62 76,-114zm-401 -196l402 0c-5,-61 -21,-106 -46,-136 -39,-48 -89,-71 -151,-71 -56,0 -104,19 -142,56 -38,38 -59,88 -63,151z"></path> <path id="15" class="fil0" d="M12937 1424l0 -722 110 0 0 111c28,-52 54,-86 78,-102 24,-16 50,-24 79,-24 41,0 83,13 126,38l-44 113c-30,-16 -59,-25 -89,-25 -27,0 -51,8 -72,24 -21,16 -36,39 -45,67 -14,43 -20,91 -20,143l0 377 -123 0z"></path> <g id="_2086887550304"> <polygon class="fil1" points="0,0 1814,0 1814,1814 0,1814 "></polygon> <polygon class="fil2" points="218,181 1596,181 1596,1632 218,1632 "></polygon> <polygon class="fil3" points="961,1342 363,1342 363,1451 961,1451 "></polygon> <polygon class="fil3" points="961,852 363,852 363,961 961,961 "></polygon> <polygon class="fil3" points="961,363 363,363 363,472 961,472 "></polygon> <path class="fil1" d="M1442 417c0,30 -24,55 -54,55 -30,0 -54,-25 -54,-55 0,-30 24,-54 54,-54 30,0 54,24 54,54z"></path> <path class="fil1" d="M1442 907c0,30 -24,54 -54,54 -30,0 -54,-24 -54,-54 0,-30 24,-55 54,-55 30,0 54,25 54,55z"></path> <path class="fil1" d="M1442 1397c0,30 -24,54 -54,54 -30,0 -54,-24 -54,-54 0,-30 24,-55 54,-55 30,0 54,25 54,55z"></path> <polygon class="fil1" points="290,671 1524,671 1524,653 290,653 "></polygon> <polygon class="fil1" points="290,1161 1524,1161 1524,1143 290,1143 "></polygon> </g> </g> </svg> 