<svg width="224" height="61" viewBox="0 0 224 61" fill="none" xmlns="http://www.w3.org/2000/svg">
<g clip-path="url(#clip0_106_15)">
<path fill-rule="evenodd" clip-rule="evenodd" d="M45.4493 22.3029H0V0.0116501H45.4493V22.3029Z" fill="#2E66B1"/>
<path fill-rule="evenodd" clip-rule="evenodd" d="M22.4842 44.5942H0V22.3029H22.4842V44.5942Z" fill="#FFC22D"/>
<path fill-rule="evenodd" clip-rule="evenodd" d="M45.4493 44.5942H22.4842V22.3029H45.4493V44.5942Z" fill="#91C6E9"/>
<path fill-rule="evenodd" clip-rule="evenodd" d="M69.0156 35.2767V13.4572H60.599V10.6265H80.9189V13.4572H72.5024V35.2767H69.0156ZM92.2211 33.0358C91.0188 33.9793 89.9367 34.687 88.8545 35.0408C87.7724 35.5126 86.57 35.6305 85.3677 35.6305C83.3237 35.6305 81.7606 35.1588 80.6785 34.2152C79.5963 33.2717 78.9952 32.0922 78.9952 30.559C78.9952 29.6154 79.2356 28.9078 79.5963 28.2001C80.0773 27.3745 80.5582 26.9027 81.2797 26.431C81.8808 25.9592 82.7225 25.6054 83.5641 25.3695C84.1653 25.2515 85.1272 25.1336 86.3296 25.0156C88.8545 24.6618 90.7783 24.308 91.9807 23.9541C91.9807 23.4824 91.9807 23.2465 91.9807 23.1285C91.9807 21.9491 91.7402 21.0056 91.139 20.5338C90.2974 19.8261 89.095 19.4723 87.5319 19.4723C85.9689 19.4723 84.8867 19.7082 84.1653 20.18C83.4439 20.7697 82.963 21.5953 82.6022 22.8927L79.5963 22.5388C79.8368 21.2414 80.3178 20.18 80.9189 19.3544C81.5201 18.6467 82.482 18.057 83.6844 17.5852C84.8867 17.2314 86.3296 16.9955 87.8926 16.9955C89.5759 16.9955 90.7783 17.1134 91.8604 17.4673C92.8223 17.8211 93.5437 18.2929 94.0247 18.8826C94.5056 19.4723 94.8663 20.062 94.9866 20.8876C95.1068 21.4773 95.227 22.4209 95.227 23.7183V27.7283C95.227 30.559 95.227 32.3281 95.3473 33.1537C95.4675 33.8614 95.708 34.569 96.1889 35.2767H92.8223C92.5819 34.687 92.3414 33.8614 92.2211 33.0358ZM91.9807 26.313C90.7783 26.7848 89.095 27.1386 86.8105 27.3745C85.4879 27.6104 84.6463 27.8463 84.0451 28.0822C83.5641 28.318 83.0832 28.5539 82.8427 29.0257C82.482 29.4975 82.3618 29.9693 82.3618 30.441C82.3618 31.2666 82.7225 31.9743 83.3237 32.4461C83.9248 33.0358 84.8867 33.2717 86.0891 33.2717C87.2915 33.2717 88.3736 33.0358 89.3355 32.564C90.2974 31.9743 91.0188 31.2666 91.4997 30.441C91.7402 29.7334 91.9807 28.7898 91.9807 27.3745V26.313ZM100.036 35.2767V10.6265H103.163V35.2767H100.036ZM107.972 35.2767V10.6265H111.098V35.2767H107.972ZM115.908 42.1174L115.547 39.2868C116.268 39.5227 116.87 39.5227 117.351 39.5227C118.072 39.5227 118.673 39.4047 119.034 39.2868C119.515 39.0509 119.755 38.6971 120.116 38.3432C120.236 37.9894 120.597 37.2817 121.078 35.9844C121.078 35.8664 121.198 35.6305 121.318 35.2767L114.224 17.3493H117.711L121.559 27.7283C122.04 29.0257 122.521 30.441 122.881 31.8563C123.242 30.441 123.723 29.1437 124.204 27.8463L128.172 17.3493H131.298L124.204 35.5126C123.483 37.5176 122.881 38.815 122.521 39.6406C121.919 40.5842 121.318 41.2918 120.597 41.7636C119.875 42.2354 118.914 42.4712 117.952 42.4712C117.351 42.4712 116.629 42.3533 115.908 42.1174ZM134.424 35.2767V10.6265H144.163C145.846 10.6265 147.169 10.6265 148.011 10.8624C149.333 10.9804 150.415 11.4522 151.257 11.9239C152.099 12.5136 152.82 13.3392 153.301 14.4007C153.782 15.3443 154.023 16.5237 154.023 17.7031C154.023 19.8261 153.421 21.5953 151.979 23.0106C150.536 24.5439 148.131 25.2515 144.404 25.2515H137.791V35.2767H134.424ZM137.791 22.3029H144.524C146.688 22.3029 148.251 21.9491 149.213 21.1235C150.055 20.2979 150.536 19.2364 150.536 17.8211C150.536 16.7596 150.295 15.934 149.694 15.2263C149.213 14.4007 148.492 13.929 147.65 13.6931C147.049 13.5751 145.967 13.4572 144.404 13.4572H137.791V22.3029ZM157.99 35.2767V17.3493H160.756V20.062C161.477 18.7646 162.199 17.939 162.8 17.5852C163.401 17.2314 164.122 16.9955 164.844 16.9955C165.926 16.9955 167.008 17.3493 168.09 17.939L167.008 20.7697C166.287 20.2979 165.445 20.062 164.724 20.062C164.002 20.062 163.401 20.2979 162.8 20.6517C162.319 21.1235 161.838 21.7132 161.597 22.4209C161.357 23.4824 161.116 24.6618 161.116 25.8412V35.2767H157.99ZM170.014 14.0469V10.6265H173.14V14.0469H170.014ZM170.014 35.2767V17.3493H173.14V35.2767H170.014ZM177.95 35.2767V17.3493H180.835V19.9441C181.316 19.0005 182.158 18.2929 183.12 17.8211C184.082 17.2314 185.164 16.9955 186.486 16.9955C187.809 16.9955 189.011 17.2314 189.853 17.8211C190.695 18.4108 191.296 19.1185 191.656 20.062C193.22 18.057 195.143 16.9955 197.428 16.9955C199.352 16.9955 200.794 17.4673 201.756 18.4108C202.718 19.4723 203.199 20.8876 203.199 23.0106V35.2767H200.073V23.9541C200.073 22.7747 199.953 21.9491 199.833 21.3594C199.592 20.8876 199.231 20.4158 198.63 20.062C198.149 19.8261 197.548 19.5902 196.706 19.5902C195.504 19.5902 194.422 20.062 193.46 20.8876C192.618 21.7132 192.258 23.0106 192.258 24.8977V35.2767H189.011V23.6003C189.011 22.3029 188.771 21.2414 188.29 20.6517C187.809 19.9441 186.967 19.5902 185.765 19.5902C184.803 19.5902 184.082 19.8261 183.24 20.2979C182.519 20.7697 182.038 21.3594 181.677 22.185C181.316 23.1285 181.076 24.308 181.076 25.9592V35.2767H177.95ZM220.633 29.4975L224 29.8513C223.399 31.7384 222.437 33.1537 221.114 34.0973C219.671 35.1588 217.868 35.6305 215.704 35.6305C213.059 35.6305 210.894 34.8049 209.211 33.2717C207.648 31.6205 206.806 29.3795 206.806 26.431C206.806 23.4824 207.648 21.1235 209.331 19.4723C210.894 17.8211 213.059 16.9955 215.583 16.9955C218.108 16.9955 220.152 17.8211 221.715 19.4723C223.279 21.0056 224 23.3644 224 26.313C224 26.431 224 26.7848 224 27.1386H210.173C210.293 29.0257 210.774 30.559 211.856 31.6205C212.938 32.682 214.261 33.1537 215.824 33.1537C216.906 33.1537 217.868 32.9178 218.71 32.3281C219.551 31.7384 220.152 30.7949 220.633 29.4975ZM210.293 24.6618H220.754C220.633 23.1285 220.152 21.9491 219.551 21.2414C218.469 20.062 217.267 19.4723 215.583 19.4723C214.141 19.4723 212.938 19.9441 211.976 20.8876C211.014 21.8312 210.413 23.0106 210.293 24.6618Z" fill="#2E66B1"/>
<path fill-rule="evenodd" clip-rule="evenodd" d="M143.081 50.0196H136.468V55.0912H144.163V56.7424H134.424V42.1174H144.043V43.7686H136.468V48.3684H143.081V50.0196Z" fill="black"/>
<path fill-rule="evenodd" clip-rule="evenodd" d="M147.77 51.1991C147.77 49.5478 148.251 48.2505 148.973 47.189C149.814 46.2454 150.896 45.6557 152.219 45.6557C153.542 45.6557 154.624 46.1275 155.345 46.9531V41.2918H157.269V56.7424H155.586L155.465 55.5629C154.624 56.5065 153.542 56.8603 152.219 56.8603C150.896 56.8603 149.814 56.3886 148.973 55.3271C148.251 54.3835 147.77 52.9682 147.77 51.317V51.1991ZM149.694 51.4349C149.694 52.6144 149.935 53.5579 150.536 54.2656C151.017 54.9732 151.738 55.3271 152.7 55.3271C153.902 55.3271 154.864 54.8553 155.345 53.7938V48.8402C154.864 47.7787 153.902 47.3069 152.7 47.3069C151.738 47.3069 151.017 47.6608 150.536 48.2505C149.935 48.9581 149.694 50.0196 149.694 51.4349Z" fill="black"/>
<path fill-rule="evenodd" clip-rule="evenodd" d="M164.603 56.7424H162.68V45.8916H164.603V56.7424ZM162.439 43.061C162.439 42.7071 162.559 42.4712 162.8 42.2354C162.92 41.9995 163.281 41.9995 163.641 41.9995C164.002 41.9995 164.243 41.9995 164.483 42.2354C164.603 42.4712 164.724 42.7071 164.724 43.061C164.724 43.2968 164.603 43.5327 164.483 43.7686C164.243 44.0045 164.002 44.0045 163.641 44.0045C163.281 44.0045 162.92 44.0045 162.8 43.7686C162.559 43.5327 162.439 43.2968 162.439 43.061Z" fill="black"/>
<path fill-rule="evenodd" clip-rule="evenodd" d="M172.419 43.2968V45.8916H174.583V47.3069H172.419V54.0297C172.419 54.5015 172.539 54.7373 172.659 54.9732C172.9 55.2091 173.26 55.3271 173.621 55.3271C173.862 55.3271 174.222 55.3271 174.583 55.2091V56.7424C174.102 56.8603 173.621 56.8603 173.14 56.8603C172.178 56.8603 171.577 56.6244 171.096 56.1527C170.735 55.6809 170.495 54.9732 170.495 54.0297V47.3069H168.451V45.8916H170.495V43.2968H172.419Z" fill="black"/>
<path fill-rule="evenodd" clip-rule="evenodd" d="M188.651 55.0912H195.865V56.7424H186.727V42.1174H188.651V55.0912Z" fill="black"/>
<path fill-rule="evenodd" clip-rule="evenodd" d="M199.472 51.1991C199.472 50.1376 199.712 49.194 200.193 48.3684C200.554 47.5428 201.155 46.8351 201.997 46.3634C202.718 45.8916 203.68 45.6557 204.642 45.6557C206.205 45.6557 207.407 46.2454 208.369 47.189C209.331 48.2505 209.812 49.5478 209.812 51.317V51.4349C209.812 52.4964 209.572 53.44 209.091 54.2656C208.73 55.0912 208.129 55.6809 207.287 56.1527C206.566 56.6244 205.604 56.8603 204.642 56.8603C203.079 56.8603 201.877 56.3886 200.915 55.3271C199.953 54.3835 199.472 52.9682 199.472 51.317V51.1991ZM201.396 51.4349C201.396 52.6144 201.756 53.5579 202.358 54.2656C202.838 54.9732 203.68 55.445 204.642 55.445C205.604 55.445 206.446 54.9732 206.926 54.2656C207.528 53.5579 207.888 52.4964 207.888 51.1991C207.888 50.0196 207.528 49.0761 206.926 48.3684C206.325 47.5428 205.604 47.189 204.642 47.189C203.68 47.189 202.959 47.5428 202.358 48.2505C201.756 49.0761 201.396 50.0196 201.396 51.4349Z" fill="black"/>
<path fill-rule="evenodd" clip-rule="evenodd" d="M213.9 51.199C213.9 49.5478 214.261 48.1325 215.103 47.189C215.944 46.1275 217.026 45.6557 218.349 45.6557C219.672 45.6557 220.754 46.1275 221.595 47.071L221.716 45.8916H223.399V56.3885C223.399 57.8039 223.038 58.9833 222.076 59.8089C221.235 60.5166 220.032 60.9883 218.589 60.9883C217.868 60.9883 217.026 60.7524 216.185 60.5166C215.463 60.1627 214.862 59.691 214.501 59.1012L215.463 58.0398C216.305 58.9833 217.267 59.4551 218.469 59.4551C219.431 59.4551 220.152 59.2192 220.633 58.7474C221.235 58.1577 221.475 57.45 221.475 56.5065V55.6809C220.754 56.5065 219.672 56.8603 218.349 56.8603C217.026 56.8603 215.944 56.3885 215.103 55.3271C214.261 54.3835 213.9 52.9682 213.9 51.199ZM215.824 51.4349C215.824 52.6144 216.064 53.5579 216.666 54.2656C217.147 54.9732 217.868 55.3271 218.83 55.3271C220.032 55.3271 220.874 54.8553 221.475 53.7938V48.8402C220.874 47.7787 220.032 47.3069 218.83 47.3069C217.868 47.3069 217.147 47.6608 216.666 48.2505C216.064 48.9581 215.824 50.0196 215.824 51.4349Z" fill="black"/>
<path fill-rule="evenodd" clip-rule="evenodd" d="M126.609 56.7424H68.4144V54.7374H126.609V56.7424Z" fill="#FFC22D"/>
</g>
<defs>
<clipPath id="clip0_106_15">
<rect width="224" height="61" fill="white"/>
</clipPath>
</defs>
</svg>
